<svg width="93" height="84" viewBox="0 0 93 84" fill="none" xmlns="http://www.w3.org/2000/svg">
<path d="M84.0006 5.79199H59.3799C58.579 5.79199 57.9316 6.44082 57.9316 7.24027V14.4816V43.4472C57.9316 44.2466 58.579 44.8954 59.3799 44.8954H84.0006C84.8015 44.8954 85.4489 44.2466 85.4489 43.4472V14.4816V7.24027C85.4489 6.44082 84.8015 5.79199 84.0006 5.79199ZM60.8282 8.68854H82.5523V13.0334H60.8282V8.68854ZM82.5523 41.9989H60.8282V15.9299H82.5523V41.9989Z" fill="white"/>
<path d="M66.6231 18.8262H63.7266V21.7227H66.6231V18.8262Z" fill="white"/>
<path d="M79.6536 18.8262H69.5156V21.7227H79.6536V18.8262Z" fill="white"/>
<path d="M66.6231 24.6211H63.7266V27.5176H66.6231V24.6211Z" fill="white"/>
<path d="M79.6536 24.6211H69.5156V27.5176H79.6536V24.6211Z" fill="white"/>
<path d="M66.6231 30.4131H63.7266V33.3096H66.6231V30.4131Z" fill="white"/>
<path d="M79.6536 30.4131H69.5156V33.3096H79.6536V30.4131Z" fill="white"/>
<path d="M66.6231 36.208H63.7266V39.1046H66.6231V36.208Z" fill="white"/>
<path d="M79.6536 36.208H69.5156V39.1046H79.6536V36.208Z" fill="white"/>
<path d="M53.587 20.2747H42.0008V14.4816H43.4491C44.25 14.4816 44.8974 13.8328 44.8974 13.0334V7.24027C44.8974 6.44082 44.25 5.79199 43.4491 5.79199H37.656C36.8551 5.79199 36.2077 6.44082 36.2077 7.24027V8.68854H15.9318V7.24027C15.9318 6.44082 15.2845 5.79199 14.4836 5.79199H8.69046C7.88957 5.79199 7.24219 6.44082 7.24219 7.24027V13.0334C7.24219 13.8328 7.88957 14.4816 8.69046 14.4816H10.1387V36.2058H8.69046C7.88957 36.2058 7.24219 36.8546 7.24219 37.6541V43.4472C7.24219 44.2466 7.88957 44.8954 8.69046 44.8954H14.4836C15.2845 44.8954 15.9318 44.2466 15.9318 43.4472V41.9989H36.2077V43.4472C36.2077 44.2466 36.8551 44.8954 37.656 44.8954H43.4491C44.25 44.8954 44.8974 44.2466 44.8974 43.4472V37.6541C44.8974 36.8546 44.25 36.2058 43.4491 36.2058H42.0008V31.861H53.587C54.3879 31.861 55.0353 31.2121 55.0353 30.4127V21.723C55.0353 20.9236 54.3879 20.2747 53.587 20.2747ZM39.1043 8.68854H42.0008V11.5851H39.1043V8.68854ZM10.1387 8.68854H13.0353V11.5851H10.1387V8.68854ZM13.0353 41.9989H10.1387V39.1023H13.0353V41.9989ZM42.0008 41.9989H39.1043V39.1023H42.0008V41.9989ZM39.1043 36.2058H37.656C36.8551 36.2058 36.2077 36.8546 36.2077 37.6541V39.1023H15.9318V37.6541C15.9318 36.8546 15.2845 36.2058 14.4836 36.2058H13.0353V14.4816H14.4836C15.2845 14.4816 15.9318 13.8328 15.9318 13.0334V11.5851H36.2077V13.0334C36.2077 13.8328 36.8551 14.4816 37.656 14.4816H39.1043V20.2747H21.7249C20.924 20.2747 20.2767 20.9236 20.2767 21.723V30.4127C20.2767 31.2121 20.924 31.861 21.7249 31.861H39.1043V36.2058ZM52.1387 28.9644H23.1732V23.1713H24.6215V24.6196H27.518V23.1713H30.4146V26.0679H33.3112V23.1713H36.2077V24.6196H39.1043V23.1713H42.0008V26.0679H44.8974V23.1713H47.7939V24.6196H50.6905V23.1713H52.1387V28.9644Z" fill="white"/>
<path d="M89.7931 0H2.89655C1.2991 0 0 1.2991 0 2.89655V49.2414V59.3793C0 60.9768 1.2991 62.2759 2.89655 62.2759H37.3684L34.999 75.3103H30.4138C30.0286 75.3103 29.6607 75.4624 29.3899 75.7347L26.4933 78.6312C26.221 78.9021 26.069 79.2714 26.069 79.6552V82.5517C26.069 83.3512 26.7163 84 27.5172 84H65.1724C65.9733 84 66.6207 83.3512 66.6207 82.5517V79.6552C66.6207 79.2714 66.4686 78.9021 66.1963 78.6312L63.2998 75.7347C63.029 75.4624 62.6611 75.3103 62.2759 75.3103H57.6906L55.3212 62.2759H89.7931C91.3905 62.2759 92.6897 60.9768 92.6897 59.3793V49.2414V2.89655C92.6897 1.2991 91.3905 0 89.7931 0ZM2.89655 2.89655H89.7931V47.7931H2.89655V2.89655ZM63.7241 80.2548V81.1034H28.9655V80.2548L31.0134 78.2069H36.2069H56.4828H61.6763L63.7241 80.2548ZM54.7477 75.3103H37.9419L40.3128 62.2759H44.898L44.8965 68.069H43.4483V70.9655H49.2414V68.069H47.7931L47.7945 62.2759H52.3769L54.7477 75.3103ZM89.7931 59.3793H53.5862H39.1034H2.89655V50.6897H89.7931V59.3793Z" fill="white"/>
<path d="M50.6897 53.5869H42V56.4835H50.6897V53.5869Z" fill="white"/>
</svg>
