<svg width="84" height="84" viewBox="0 0 84 84" fill="none" xmlns="http://www.w3.org/2000/svg">
<path d="M20.9998 74.2C27.1752 74.2 32.1998 69.1754 32.1998 63C32.1998 56.8246 27.1752 51.8 20.9998 51.8C14.8244 51.8 9.7998 56.8246 9.7998 63C9.7998 69.1754 14.8244 74.2 20.9998 74.2ZM20.9998 54.6C25.6324 54.6 29.3998 58.3674 29.3998 63C29.3998 67.6326 25.6324 71.4 20.9998 71.4C16.3672 71.4 12.5998 67.6326 12.5998 63C12.5998 58.3674 16.3672 54.6 20.9998 54.6Z" fill="#9C447F"/>
<path d="M0.9604 67.6032L4.6158 68.8128L5.3102 70.4844L3.7646 73.7352C3.5476 74.193 3.5938 74.7334 3.8892 75.1478C5.2598 77.0728 6.9286 78.7416 8.8522 80.1094C9.2652 80.402 9.807 80.4482 10.2634 80.2326L13.4554 78.7164C14.028 78.9922 14.6132 79.2358 15.2068 79.4458L16.3968 83.0396C16.5872 83.6136 17.1206 84 17.7254 84H24.2746C24.8794 84 25.4128 83.6136 25.6032 83.0396L26.7932 79.4458C27.3868 79.2372 27.972 78.9936 28.5446 78.7164L31.7366 80.2326C32.193 80.4482 32.7362 80.402 33.1478 80.1094C35.0728 78.7402 36.7416 77.0714 38.1108 75.1464C38.4048 74.7334 38.451 74.193 38.234 73.7352L36.7178 70.5432C36.9936 69.9706 37.2372 69.3854 37.4472 68.7918L41.041 67.6018C41.6136 67.4128 42 66.8794 42 66.2746V59.7254C42 59.1206 41.6136 58.5872 41.0396 58.3968L37.4458 57.2068C37.2372 56.6132 36.9936 56.028 36.7178 55.4568L38.234 52.2634C38.451 51.8056 38.4048 51.2652 38.1094 50.8508C36.7402 48.9272 35.0714 47.2584 33.1478 45.8892C32.732 45.5938 32.1902 45.549 31.7352 45.7646L28.5418 47.2808C27.9706 47.0064 27.3854 46.7628 26.7918 46.5528L25.6018 42.959C25.4128 42.3864 24.8794 42 24.2746 42H17.7254C17.1206 42 16.5872 42.3864 16.3968 42.9604L15.1872 46.6158L13.5156 47.3102L10.2648 45.7646C9.8112 45.5504 9.268 45.5938 8.8522 45.8892C6.9286 47.2584 5.2598 48.9272 3.892 50.8494C3.598 51.2638 3.5504 51.8042 3.7674 52.262L5.3116 55.5142L4.6172 57.1858L0.9618 58.3954C0.3864 58.5872 0 59.1206 0 59.7254V66.2746C0 66.8794 0.3864 67.4128 0.9604 67.6032ZM2.8 60.7376L6.1026 59.6442C6.4876 59.5168 6.7998 59.227 6.9552 58.8532L8.134 56.0154C8.2852 55.6486 8.2754 55.2356 8.1046 54.8786L6.6556 51.8238C7.5782 50.6422 8.6394 49.581 9.8224 48.657L12.8758 50.1074C13.2328 50.2782 13.6472 50.288 14.0126 50.1368L16.8504 48.958C17.2256 48.8026 17.5154 48.4904 17.6414 48.1054L18.7376 44.8H23.2624L24.3558 48.1026C24.4986 48.5338 24.8416 48.8698 25.2756 49.0028C26.1618 49.2716 27.0312 49.6328 27.8656 50.078C28.2548 50.2852 28.721 50.2964 29.1228 50.1074L32.1762 48.657C33.3592 49.581 34.4204 50.6422 35.3444 51.8252L33.894 54.8786C33.7036 55.279 33.7148 55.7452 33.9234 56.1358C34.3672 56.9702 34.7284 57.8396 34.9986 58.7258C35.1316 59.1612 35.4676 59.5042 35.8988 59.6456L39.2 60.7376V65.2624L35.8974 66.3558C35.4662 66.4986 35.1302 66.8416 34.9972 67.2756C34.7284 68.1618 34.3672 69.0312 33.922 69.8656C33.7148 70.2562 33.7036 70.7224 33.8926 71.1228L35.3416 74.1762C34.419 75.3592 33.3578 76.4204 32.1748 77.343L29.1214 75.894C28.7196 75.7022 28.2534 75.7134 27.8642 75.9234C27.0298 76.3672 26.1604 76.7284 25.2742 76.9986C24.8388 77.1316 24.4958 77.4676 24.3544 77.8988L23.2624 81.2H18.7376L17.6442 77.8974C17.5014 77.4662 17.1584 77.1302 16.7244 76.9972C15.8382 76.7284 14.9688 76.3672 14.1344 75.922C13.7438 75.7134 13.2762 75.7022 12.8772 75.8926L9.8238 77.3416C8.6408 76.419 7.5796 75.3578 6.6556 74.1748L8.106 71.1214C8.2754 70.7644 8.2866 70.35 8.1354 69.9846L6.9566 67.1468C6.8012 66.7716 6.489 66.4818 6.104 66.3558L2.8 65.2624V60.7376Z" fill="#9C447F"/>
<path d="M62.9998 9.80005C56.8244 9.80005 51.7998 14.8246 51.7998 21C51.7998 27.1754 56.8244 32.2 62.9998 32.2C69.1752 32.2 74.1998 27.1754 74.1998 21C74.1998 14.8246 69.1752 9.80005 62.9998 9.80005ZM62.9998 29.4C58.3672 29.4 54.5998 25.6326 54.5998 21C54.5998 16.3674 58.3672 12.6 62.9998 12.6C67.6324 12.6 71.3998 16.3674 71.3998 21C71.3998 25.6326 67.6324 29.4 62.9998 29.4Z" fill="#9C447F"/>
<path d="M83.0396 16.3968L79.4458 15.2068C79.2372 14.6132 78.9936 14.028 78.7178 13.4568L80.234 10.2634C80.451 9.8056 80.4048 9.2652 80.1094 8.8508C78.7402 6.9272 77.0714 5.2584 75.1478 3.8892C74.732 3.5924 74.1902 3.549 73.7352 3.7646L70.5418 5.2808C69.9706 5.0064 69.3854 4.7628 68.7918 4.5528L67.6018 0.959C67.4128 0.3864 66.8794 0 66.2746 0H59.7254C59.1206 0 58.5872 0.3864 58.3968 0.9604L57.1872 4.6158L55.5156 5.3102L52.2648 3.7646C51.8112 3.5504 51.268 3.5938 50.8522 3.8892C48.9286 5.2584 47.2598 6.9272 45.892 8.8494C45.598 9.2638 45.5504 9.8042 45.7674 10.262L47.3116 13.5142L46.6172 15.1858L42.9618 16.3954C42.3864 16.5872 42 17.1206 42 17.7254V24.2746C42 24.8794 42.3864 25.4128 42.9604 25.6032L46.6158 26.8128L47.3102 28.4844L45.7646 31.7352C45.5476 32.193 45.5938 32.7334 45.8892 33.1478C47.2598 35.0728 48.9286 36.7416 50.8522 38.1094C51.2652 38.402 51.807 38.4496 52.2634 38.2326L55.4554 36.7164C56.028 36.9922 56.6132 37.2358 57.2068 37.4458L58.3968 41.0396C58.5872 41.6136 59.1206 42 59.7254 42H66.2746C66.8794 42 67.4128 41.6136 67.6032 41.0396L68.7932 37.4458C69.3868 37.2372 69.972 36.9936 70.5446 36.7164L73.7366 38.2326C74.193 38.4496 74.7362 38.402 75.1478 38.1094C77.0728 36.7402 78.7416 35.0714 80.1108 33.1464C80.4048 32.7334 80.451 32.193 80.234 31.7352L78.7178 28.5432C78.9936 27.9706 79.2372 27.3854 79.4472 26.7918L83.041 25.6018C83.6136 25.4128 84 24.8794 84 24.2746V17.7254C84 17.1206 83.6136 16.5872 83.0396 16.3968ZM81.2 23.2624L77.8974 24.3558C77.4662 24.4986 77.1302 24.8416 76.9972 25.2756C76.7284 26.1618 76.3672 27.0312 75.922 27.8656C75.7148 28.2562 75.7036 28.7224 75.8926 29.1228L77.3416 32.1762C76.419 33.3592 75.3578 34.4204 74.1748 35.343L71.1214 33.894C70.721 33.7036 70.2534 33.7134 69.8642 33.9234C69.0298 34.3672 68.1604 34.7284 67.2742 34.9986C66.8388 35.1316 66.4958 35.4676 66.3544 35.8988L65.2624 39.2H60.7376L59.6442 35.8974C59.5014 35.4662 59.1584 35.1302 58.7244 34.9972C57.8382 34.7284 56.9688 34.3672 56.1344 33.922C55.7424 33.7134 55.2762 33.7036 54.8772 33.8926L51.8238 35.3416C50.6408 34.419 49.5796 33.3578 48.6556 32.1748L50.106 29.1214C50.2754 28.7644 50.2866 28.35 50.1354 27.9846L48.9566 25.1468C48.8012 24.7716 48.489 24.4818 48.104 24.3558L44.8 23.2624V18.7376L48.1026 17.6442C48.4876 17.5168 48.7998 17.227 48.9552 16.8532L50.134 14.0154C50.2852 13.6486 50.2754 13.2356 50.1046 12.8786L48.6556 9.8238C49.5782 8.6422 50.6394 7.581 51.8224 6.657L54.8758 8.1074C55.2314 8.2782 55.6486 8.2894 56.0126 8.1368L58.8504 6.958C59.2256 6.8026 59.5154 6.4904 59.6414 6.1054L60.7376 2.8H65.2624L66.3558 6.1026C66.4986 6.5338 66.8416 6.8698 67.2756 7.0028C68.1618 7.2716 69.0312 7.6328 69.8656 8.078C70.2548 8.2852 70.7224 8.2964 71.1228 8.1074L74.1762 6.657C75.3592 7.581 76.4204 8.6422 77.3444 9.8252L75.894 12.8786C75.7036 13.279 75.7148 13.7452 75.9234 14.1358C76.3672 14.9702 76.7284 15.8396 76.9986 16.7258C77.1316 17.1612 77.4676 17.5042 77.8988 17.6456L81.2 18.7376V23.2624Z" fill="#9C447F"/>
<path d="M64.4004 15.3999H61.6004V19.5999H57.4004V22.3999H61.6004V26.5999H64.4004V22.3999H68.6004V19.5999H64.4004V15.3999Z" fill="#9C447F"/>
<path d="M19.6004 68.5999H22.4004V64.3999H26.6004V61.5999H22.4004V57.3999H19.6004V61.5999H15.4004V64.3999H19.6004V68.5999Z" fill="#9C447F"/>
<path d="M78.4002 52.2229L81.4354 56.7757L83.765 55.2231L78.165 46.8231C77.6456 46.0433 76.3548 46.0433 75.8354 46.8231L70.2354 55.2231L72.565 56.7757L75.6002 52.2229V78.3987H78.4002V52.2229Z" fill="#9C447F"/>
<path d="M54.8354 55.2218L49.2354 63.6218L51.565 65.1744L54.6002 60.623V78.3988H57.4002V60.623L60.4354 65.1758L62.765 63.6232L57.165 55.2232C56.6456 54.4434 55.3548 54.4434 54.8354 55.2218Z" fill="#9C447F"/>
<path d="M57.3996 81.2H54.5996V84H57.3996V81.2Z" fill="#9C447F"/>
<path d="M78.3996 81.2H75.5996V84H78.3996V81.2Z" fill="#9C447F"/>
<path d="M8.40015 6.02298L11.4354 10.5758L13.765 9.02318L8.16495 0.62318C7.64555 -0.15662 6.35475 -0.15662 5.83535 0.62318L0.235352 9.02318L2.56495 10.5758L5.60015 6.02298V32.1988H8.40015V6.02298Z" fill="#9C447F"/>
<path d="M29.4002 14.4229L32.4354 18.9757L34.765 17.4231L29.165 9.02308C28.6456 8.24328 27.3548 8.24328 26.8354 9.02308L21.2354 17.4231L23.565 18.9757L26.6002 14.4229V32.1987H29.4002V14.4229Z" fill="#9C447F"/>
<path d="M29.3996 35H26.5996V37.8H29.3996V35Z" fill="#9C447F"/>
<path d="M8.39961 35H5.59961V37.8H8.39961V35Z" fill="#9C447F"/>
</svg>
