<svg width="118" height="84" viewBox="0 0 118 84" fill="none" xmlns="http://www.w3.org/2000/svg">
<path d="M115.907 31.7089C115.59 31.4568 112.626 29.2189 106.376 29.2189C104.725 29.2261 103.078 29.3677 101.451 29.6422C100.241 21.3506 93.386 17.3079 93.0787 17.1266L91.4003 16.1587L90.2964 17.7516C88.914 19.8914 87.9048 22.2502 87.3124 24.7277C86.1933 29.4609 86.8738 33.9065 89.2782 37.7072C86.3748 39.3251 81.7174 39.7234 80.7749 39.7586H3.66435C1.65024 39.7614 0.0158941 41.3891 0.00491759 43.403C-0.0850241 50.1583 1.05948 56.8733 3.38207 63.2174C6.03838 70.1835 9.99025 75.3148 15.1317 78.455C20.893 81.9834 30.2533 83.9996 40.8637 83.9996C45.657 84.0147 50.4412 83.5809 55.1538 82.7042C61.7046 81.5014 68.0082 79.2117 73.8038 75.9296C78.5792 73.1642 82.8771 69.6461 86.5313 65.5108C92.6404 58.5951 96.2799 50.8931 98.9865 44.0481C99.3494 44.0481 99.7124 44.0481 100.065 44.0481C106.754 44.0481 110.867 41.3715 113.135 39.1286C114.643 37.698 115.82 35.9554 116.583 34.0225L117.062 32.6213L115.907 31.7089Z" fill="#9C447F"/>
<path d="M10.8216 37.5718H21.1548C21.6531 37.5718 22.057 37.1678 22.057 36.6696V27.4654C22.0598 26.967 21.6581 26.5609 21.1599 26.5581C21.1582 26.5581 21.1564 26.5581 21.1548 26.5581H10.8216C10.3233 26.5581 9.91943 26.9621 9.91943 27.4603C9.91943 27.4619 9.91943 27.4637 9.91943 27.4654V36.6694C9.91943 37.1678 10.3233 37.5718 10.8216 37.5718Z" fill="#9C447F"/>
<path d="M24.906 37.5718H35.2391C35.7375 37.5718 36.1413 37.1678 36.1413 36.6696V27.4654C36.1441 26.967 35.7424 26.5609 35.244 26.5581C35.2424 26.5581 35.2406 26.5581 35.239 26.5581H24.9058C24.4047 26.5581 23.9985 26.9642 23.9985 27.4654V36.6694C24.0015 37.1686 24.4068 37.5718 24.906 37.5718Z" fill="#9C447F"/>
<path d="M39.6197 37.5718H49.9528C50.4512 37.5718 50.855 37.1678 50.855 36.6696V27.4654C50.8578 26.967 50.4561 26.5609 49.9577 26.5581C49.9561 26.5581 49.9543 26.5581 49.9526 26.5581H39.6195C39.1211 26.5581 38.7173 26.9621 38.7173 27.4603C38.7173 27.4619 38.7173 27.4637 38.7173 27.4654V36.6694C38.7174 37.1678 39.1214 37.5718 39.6197 37.5718Z" fill="#9C447F"/>
<path d="M53.6981 37.5718H64.0312C64.5304 37.5718 64.9357 37.1688 64.9385 36.6696V27.4654C64.9385 26.9642 64.5324 26.5581 64.0312 26.5581H53.6981C53.1997 26.5581 52.7959 26.9621 52.7959 27.4603C52.7959 27.4619 52.7959 27.4637 52.7959 27.4654V36.6694C52.7959 37.1678 53.1999 37.5718 53.6981 37.5718Z" fill="#9C447F"/>
<path d="M24.9058 24.2928H35.239C35.738 24.29 36.1412 23.8845 36.1412 23.3855V14.1815C36.1412 13.6831 35.7372 13.2793 35.239 13.2793H24.9058C24.4068 13.2793 24.0013 13.6823 23.9985 14.1815V23.3855C24.0013 23.8855 24.4058 24.29 24.9058 24.2928Z" fill="#9C447F"/>
<path d="M39.6195 24.2928H49.9526C50.4516 24.29 50.8548 23.8845 50.8548 23.3855V14.1815C50.8548 13.6831 50.4508 13.2793 49.9526 13.2793H39.6195C39.1211 13.2793 38.7173 13.6833 38.7173 14.1815V23.3855C38.7173 23.8845 39.1205 24.29 39.6195 24.2928Z" fill="#9C447F"/>
<path d="M53.6981 24.2928H64.0312C64.5312 24.29 64.9357 23.8855 64.9385 23.3855V14.1815C64.9357 13.6823 64.5304 13.2793 64.0312 13.2793H53.6981C53.1997 13.2793 52.7959 13.6833 52.7959 14.1815V23.3855C52.7959 23.8845 53.1991 24.29 53.6981 24.2928Z" fill="#9C447F"/>
<path d="M53.6981 11.0137H64.0312C64.5304 11.0137 64.9357 10.6105 64.9385 10.1115V0.902202C64.9357 0.403017 64.5304 0 64.0312 0H53.6981C53.1997 0 52.7959 0.403836 52.7959 0.902202V10.1113C52.7959 10.6097 53.1999 11.0137 53.6981 11.0137Z" fill="#9C447F"/>
<path d="M68.098 37.5718H78.4311C78.9303 37.5718 79.3356 37.1688 79.3384 36.6696V27.4654C79.3384 26.9642 78.9323 26.5581 78.4311 26.5581H68.098C67.5998 26.5581 67.1958 26.9621 67.1958 27.4603C67.1958 27.4619 67.1958 27.4637 67.1958 27.4654V36.6694C67.1958 37.1678 67.5998 37.5718 68.098 37.5718Z" fill="#9C447F"/>
</svg>
