<svg xmlns="http://www.w3.org/2000/svg" width="16" height="16" fill="none" viewBox="0 0 16 16">
    <path fill="#ABB1FB" d="M8.54503 16H2C0.89543 16 0 15.1046 0 14V2C0 0.895431 0.895431 0 2 0H13.9991C15.1037 0 15.9991 0.895431 15.9991 2V14C15.9991 15.1046 15.1037 16 13.9991 16H11.0388V9.804H13.1183L13.4298 7.38925H11.0388V5.84741C11.0388 5.14844 11.2326 4.67169 12.2355 4.67169L13.514 4.67124V2.51149C13.2929 2.48235 12.5338 2.41633 11.6506 2.41633C9.80717 2.41633 8.54503 3.5415 8.54503 5.60835V7.38925H6.45966V9.804H8.54503V16Z"/>
</svg>
