<svg width="16" height="16" viewBox="0 0 16 16" fill="none" xmlns="http://www.w3.org/2000/svg">
<path fill-rule="evenodd" clip-rule="evenodd" d="M2 0C0.895431 0 0 0.895431 0 2V14C0 15.1046 0.895431 16 2 16H14C15.1046 16 16 15.1046 16 14V2C16 0.895431 15.1046 0 14 0H2ZM5.64295 2.32352C6.25224 2.29572 6.44678 2.28915 7.99821 2.28915C9.54961 2.28915 9.74415 2.29572 10.3534 2.32352C10.9615 2.35126 11.3767 2.44783 11.7401 2.58906C12.1157 2.73502 12.4343 2.93035 12.7519 3.24792C13.0695 3.56552 13.2648 3.88409 13.4108 4.25974C13.552 4.62309 13.6486 5.03835 13.6763 5.64638C13.7041 6.25568 13.7107 6.45021 13.7107 8.00164C13.7107 9.55305 13.7041 9.74758 13.6763 10.3569C13.6486 10.9649 13.552 11.3802 13.4108 11.7435C13.2648 12.1192 13.0695 12.4377 12.7519 12.7553C12.4343 13.0729 12.1157 13.2682 11.7401 13.4142C11.3767 13.5554 10.9615 13.652 10.3534 13.6797C9.74415 13.7075 9.54961 13.7141 7.99821 13.7141C6.44678 13.7141 6.25224 13.7075 5.64295 13.6797C5.03492 13.652 4.61966 13.5554 4.2563 13.4142C3.88066 13.2682 3.56209 13.0729 3.24449 12.7553C2.92692 12.4377 2.73159 12.1192 2.58562 11.7435C2.4444 11.3802 2.34782 10.9649 2.32009 10.3569C2.29229 9.74758 2.28571 9.55305 2.28571 8.00164C2.28571 6.45021 2.29229 6.25568 2.32009 5.64638C2.34782 5.03835 2.4444 4.62309 2.58562 4.25974C2.73159 3.88409 2.92692 3.56552 3.24449 3.24792C3.56209 2.93035 3.88066 2.73502 4.2563 2.58906C4.61966 2.44783 5.03492 2.35126 5.64295 2.32352ZM10.3065 3.35173C9.70417 3.32425 9.52349 3.31842 7.99821 3.31842C6.4729 3.31842 6.29222 3.32425 5.68986 3.35173C5.1329 3.37713 4.83043 3.47019 4.62914 3.54842C4.36249 3.65205 4.1722 3.77584 3.97231 3.97575C3.7724 4.17563 3.64862 4.36593 3.54499 4.63257C3.46676 4.83386 3.3737 5.13633 3.3483 5.6933C3.32082 6.29565 3.31499 6.47633 3.31499 8.00164C3.31499 9.52692 3.32082 9.7076 3.3483 10.31C3.3737 10.8669 3.46676 11.1694 3.54499 11.3707C3.64862 11.6373 3.77243 11.8276 3.97231 12.0275C4.1722 12.2274 4.36249 12.3512 4.62914 12.4548C4.83043 12.5331 5.1329 12.6261 5.68986 12.6515C6.29215 12.679 6.47279 12.6848 7.99821 12.6848C9.52361 12.6848 9.70426 12.679 10.3065 12.6515C10.8635 12.6261 11.166 12.5331 11.3673 12.4548C11.6339 12.3512 11.8242 12.2274 12.0241 12.0275C12.224 11.8276 12.3478 11.6373 12.4514 11.3707C12.5296 11.1694 12.6227 10.8669 12.6481 10.31C12.6756 9.7076 12.6814 9.52692 12.6814 8.00164C12.6814 6.47633 12.6756 6.29565 12.6481 5.6933C12.6227 5.13633 12.5296 4.83386 12.4514 4.63257C12.3478 4.36593 12.224 4.17563 12.0241 3.97575C11.8242 3.77584 11.6339 3.65205 11.3673 3.54842C11.166 3.47019 10.8635 3.37713 10.3065 3.35173ZM7.99811 9.90569C6.94645 9.90569 6.09394 9.05317 6.09394 8.00154C6.09394 6.94988 6.94645 6.09737 7.99811 6.09737C9.04974 6.09737 9.90226 6.94988 9.90226 8.00154C9.90226 9.05317 9.04974 9.90569 7.99811 9.90569ZM7.99811 5.06809C6.37799 5.06809 5.06466 6.38143 5.06466 8.00154C5.06466 9.62163 6.37799 10.935 7.99811 10.935C9.6182 10.935 10.9315 9.62163 10.9315 8.00154C10.9315 6.38143 9.6182 5.06809 7.99811 5.06809ZM11.0474 5.63789C11.426 5.63789 11.7329 5.331 11.7329 4.9524C11.7329 4.57381 11.426 4.26689 11.0474 4.26689C10.6688 4.26689 10.3619 4.57381 10.3619 4.9524C10.3619 5.331 10.6688 5.63789 11.0474 5.63789Z" fill="#ABB1FB"/>
</svg>
