<svg width="16" height="16" viewBox="0 0 16 16" fill="none" xmlns="http://www.w3.org/2000/svg">
<path id="in" fill-rule="evenodd" clip-rule="evenodd" d="M2 0C0.895431 0 0 0.895431 0 2V14C0 15.1046 0.895431 16 2 16H14C15.1046 16 16 15.1046 16 14V2C16 0.895431 15.1046 0 14 0H2ZM11.2624 13.6399H13.6338V9.4499C13.6338 7.39327 13.1902 5.81105 10.7871 5.81105C9.63262 5.81105 8.85853 6.44421 8.54165 7.04468H8.50988V6.00091H6.23383V13.6399H8.60487V9.86096C8.60487 8.86466 8.79442 7.8997 10.0292 7.8997C11.2461 7.8997 11.2624 9.03918 11.2624 9.92499V13.6399ZM2.18305 3.5799C2.18305 4.33988 2.79859 4.9567 3.55923 4.9567C4.31799 4.9567 4.93453 4.33988 4.93453 3.5799C4.93453 2.82058 4.31799 2.20377 3.55923 2.20377C2.79859 2.20377 2.18305 2.82058 2.18305 3.5799ZM4.74542 13.6399H2.37216V6.00091H4.74542V13.6399Z" fill="#212D40"/>
</svg>
