<svg width="28" height="28" viewBox="0 0 28 28" fill="none" xmlns="http://www.w3.org/2000/svg">
<path id="in" fill-rule="evenodd" clip-rule="evenodd" d="M2 0C0.895431 0 0 0.895431 0 2V26C0 27.1046 0.895431 28 2 28H26C27.1046 28 28 27.1046 28 26V2C28 0.895431 27.1046 0 26 0H2ZM19.7091 23.8698H23.8592V16.5373C23.8592 12.9382 23.0828 10.1693 18.8775 10.1693C16.8571 10.1693 15.5024 11.2774 14.9479 12.3282H14.8923V10.5016H10.9092V23.8698H15.0585V17.2567C15.0585 15.5132 15.3902 13.8245 17.551 13.8245C19.6807 13.8245 19.7091 15.8186 19.7091 17.3687V23.8698ZM3.82034 6.26483C3.82034 7.5948 4.89753 8.67422 6.22866 8.67422C7.55648 8.67422 8.63543 7.5948 8.63543 6.26483C8.63543 4.93602 7.55648 3.8566 6.22866 3.8566C4.89753 3.8566 3.82034 4.93602 3.82034 6.26483ZM8.30449 23.8698H4.15127V10.5016H8.30449V23.8698Z" fill="#ABB1FB"/>
</svg>
