<svg width="85" height="84" viewBox="0 0 85 84" fill="none" xmlns="http://www.w3.org/2000/svg">
<path fill-rule="evenodd" clip-rule="evenodd" d="M15.6587 35.0875C15.773 35.1737 15.9714 35.2298 15.773 35.4001C15.6307 35.5985 15.4604 35.7688 15.3472 35.9963C15.234 36.1957 15.1488 36.2518 14.9785 36.1105C15.2049 35.7408 15.4313 35.399 15.6577 35.0864L15.6587 35.0875ZM72.6801 64.8589C72.6801 64.943 72.7081 64.999 72.7081 65.0853C72.7652 64.9721 72.7652 64.915 72.7943 64.8589H72.6801ZM72.6801 65.1133V65.0853V65.1133ZM66.8933 76.192L61.956 48.8084C61.8719 48.7815 61.7588 48.7254 61.5593 48.6683C61.6165 48.7815 61.6456 48.8666 61.6736 48.9518C61.8137 48.9238 61.8719 48.9238 61.928 48.8957C61.928 48.8677 61.928 48.8397 61.9571 48.8095L66.8944 76.1952L66.8933 76.192ZM61.7868 42.6444C61.7588 42.7284 61.7588 42.8147 61.7588 42.8998C61.7588 42.8136 61.7588 42.7274 61.7889 42.6433L61.7868 42.6444ZM61.8148 43.2114C61.7868 43.2114 61.7868 43.2114 61.7588 43.1812V43.2092C61.7889 43.2373 61.7889 43.2373 61.817 43.2092L61.8148 43.2114ZM61.7588 43.4378V43.2383C61.6757 43.2664 61.5906 43.2664 61.4763 43.2955C61.6186 43.3494 61.7609 43.3796 61.7609 43.4356L61.7588 43.4378Z" fill="#9C447F"/>
<path fill-rule="evenodd" clip-rule="evenodd" d="M83.8565 36.5364C83.8005 35.4282 83.7725 34.32 83.6582 33.2129C83.4598 31.7069 83.2615 30.1729 82.9208 28.696C82.6653 27.4746 82.2417 26.3093 81.8148 25.1451C81.2758 23.7814 80.7368 22.3897 80.0555 21.0831C78.9494 18.981 77.5028 17.1053 76.1693 15.1455C75.2874 13.895 74.1534 12.873 73.3018 11.5945C72.8199 10.856 72.1105 10.2319 71.4012 9.66485C70.2661 8.75393 69.0749 7.92925 67.8837 7.13476C66.976 6.50951 66.0683 5.91337 65.1024 5.37329C64.337 4.94532 63.5145 4.60467 62.72 4.23491C61.8123 3.8091 60.9327 3.29704 59.9118 3.09869C59.6552 3.04479 59.4288 2.95855 59.1734 2.87231C58.5212 2.64593 57.897 2.39044 57.2437 2.19101C56.2519 1.87838 55.2871 1.5097 54.2652 1.25314C53.2756 0.99765 52.2536 0.828402 51.2317 0.685027C50.0976 0.517936 48.9355 0.458645 47.7993 0.34761C47.0619 0.261369 46.3246 0.177284 45.6152 0.149256C44.5372 0.0931997 43.4312 0.0931997 42.3532 0.0651715C41.8142 0.0360652 41.2471 -0.0210693 40.7081 0.00803693C39.8856 0.0360652 39.0631 0.121228 38.2395 0.234419C37.4461 0.32066 36.6516 0.460801 35.8862 0.576148C34.9516 0.689339 34.0158 0.746474 33.0791 0.860743C32.1994 0.975012 31.2917 1.14534 30.4131 1.28763C30.1005 1.34477 29.7879 1.45796 29.4753 1.51402C28.7961 1.65631 28.0868 1.71345 27.4055 1.94091C26.1873 2.31174 24.9659 2.73864 23.7747 3.1914C22.6676 3.64632 21.5896 4.12927 20.5407 4.69738C19.4627 5.29244 18.4408 6.00177 17.4199 6.68523C16.454 7.3385 15.4902 8.01981 14.5524 8.75824C13.6468 9.46973 12.7952 10.2642 11.9716 11.0598C11.5189 11.5126 11.1491 12.0537 10.7233 12.5647C10.015 13.3894 9.3057 14.1839 8.6244 15.0366C8.05952 15.7481 7.54639 16.4854 7.00738 17.2249C6.04472 18.5293 5.2222 19.9221 4.45681 21.3149C4.14419 21.883 3.86067 22.4511 3.57715 23.0182C3.15134 23.8698 2.6975 24.6945 2.30079 25.5752C2.0162 26.1724 1.78981 26.8257 1.61949 27.479C1.22386 28.8718 0.826074 30.2926 0.457395 31.6832C0.116743 32.9337 0.0315807 34.2402 0.00463042 35.5188C-0.0244758 36.655 0.0887152 37.7632 0.201906 38.8994C0.231012 39.184 0.0617649 39.5246 0.40026 39.751C0.287069 40.0637 0.372232 40.2361 0.540401 40.29C0.344204 40.6027 0.626642 40.8032 0.514529 41.0878C0.485423 41.1438 0.60077 41.257 0.65467 41.3422C0.65467 41.4284 0.62772 41.5416 0.65467 41.6268C0.684855 41.8823 0.798046 42.1377 0.798046 42.4223C0.798046 42.6207 0.967293 42.8481 1.02443 43.0476C1.05246 43.1317 1.02443 43.274 0.967293 43.3311C0.796968 43.5295 0.824996 43.6998 1.08048 43.814C1.22386 44.1827 1.16673 44.3531 1.1387 44.5255C1.19475 44.7799 1.10959 44.8651 1.1387 44.9222C1.36508 45.3772 1.45132 45.8881 1.47827 46.3991C1.47827 46.5134 1.5354 46.6277 1.59254 46.7689C1.62057 46.7689 1.59254 47.3079 1.59254 47.3079C1.73268 47.2238 1.84803 47.1958 1.98925 47.1386C2.07549 47.5073 2.15957 47.8501 2.27276 48.1627C2.41506 48.3891 2.41506 48.5012 2.359 48.5293C2.47219 49.0402 2.52825 49.5232 2.72553 50.0061C2.72553 49.4671 2.67163 48.9281 2.58539 48.4161C2.98209 48.5584 3.32274 48.6996 3.5502 48.6996C3.57931 48.6133 3.60734 48.5012 3.63645 48.4441C3.46612 48.2749 3.32382 48.0194 3.1535 47.849C3.21063 48.0754 3.1535 48.1617 3.1535 48.2479C3.04031 48.1897 2.89801 48.1326 2.75679 48.0754C2.86998 47.9353 2.98317 47.7919 3.1535 47.6227C3.1535 47.3661 3.01336 47.1376 2.61449 47.1667C2.78482 47.1106 2.95514 47.0265 3.1535 46.9683C3.46612 46.7991 3.12547 46.4864 3.12547 46.0886C3.1535 45.6068 2.86998 45.1238 2.78482 44.6118C2.64252 43.8173 2.67163 42.6239 2.58646 41.8284C2.41614 41.6861 2.27384 42.0547 2.24581 42.0838C2.33205 42.7651 2.41614 43.4464 2.47219 44.1288C2.30295 43.5607 2.18868 42.9355 2.04746 42.2531C2.01835 42.4525 1.99032 42.5377 1.99032 42.652C1.85018 42.7921 1.9623 42.9646 2.04746 43.1629C1.84911 43.0767 1.62165 43.1069 1.62165 43.1069V43.9024C1.33921 43.6178 1.25512 43.3915 1.11175 43.191C1.05569 42.9646 1.02551 42.7382 0.971605 42.5118C1.02551 42.3684 0.971605 42.2833 0.971605 42.1992C0.941421 41.9987 0.913393 41.7723 0.885365 41.5157C0.913393 41.4877 0.857336 41.063 0.857336 41.063C1.08372 41.0899 1.22709 41.1169 1.36831 41.1169C1.0848 40.7503 1.28207 40.5218 1.39742 40.2943C1.45455 40.1801 1.65291 40.1542 1.71004 40.0378C1.93642 39.612 2.30618 39.2724 2.30618 38.7312C2.30618 38.4757 2.39242 38.1922 2.41937 37.9357C2.47651 37.4527 2.53256 36.9698 2.55951 36.4868C2.61773 35.8616 2.55951 35.2363 2.70289 34.6402C2.93143 33.6484 3.21494 32.6534 3.52649 31.6584C3.75287 30.9469 4.00944 30.2678 4.29188 29.5563C4.71769 28.4481 5.11547 27.3399 5.65448 26.2899C6.41987 24.7548 7.29952 23.278 8.15115 21.7731C8.69016 20.8352 9.25719 19.9545 9.85441 19.0457C10.4204 18.165 10.9863 17.2562 11.6407 16.4315C12.5494 15.2673 13.5423 14.1871 14.6483 13.2212C15.7835 12.1992 16.8615 11.1482 18.0807 10.2103C19.6675 8.9857 21.3428 7.90769 23.1279 6.96982C24.5757 6.20444 26.0785 5.60506 27.5823 5.03695C28.5471 4.66827 29.596 4.49795 30.5899 4.18533C31.724 3.81557 32.8591 3.64632 34.0503 3.61721C34.8157 3.58811 35.5542 3.50294 36.3195 3.41778C37.0009 3.36388 37.6811 3.30567 38.4195 3.22051C38.3333 3.3337 38.3052 3.39083 38.2772 3.44689C37.9668 3.90181 37.6261 4.35673 37.3135 4.81057C37.058 5.18033 36.7745 5.57811 36.519 5.94679C36.0641 6.54509 35.5811 7.14123 35.1564 7.76647C34.5042 8.70434 33.908 9.67024 33.2267 10.607C32.5476 11.5158 31.8092 12.3685 31.0998 13.2482C30.1641 14.4706 29.2845 15.72 28.3487 16.9414C27.4971 18.1057 26.5916 19.216 25.768 20.3803C25.0306 21.4011 24.3774 22.4824 23.668 23.5313C22.6191 25.0944 21.5691 26.6273 20.5202 28.1904C19.6966 29.3827 18.8741 30.5481 18.0236 31.7414C17.9664 31.8277 17.8813 31.8535 17.7972 31.9107C17.5708 32.2793 17.5708 32.4788 17.4846 32.6491C17.2582 33.0749 17.0318 33.5007 16.7752 33.8996C16.6329 34.126 16.4346 34.3243 16.2643 34.5518C16.2362 34.2111 16.717 34.0408 16.4906 33.6139C16.3505 33.8425 16.2071 34.0408 16.0659 34.2683L15.7252 34.9474C15.8384 35.0337 16.0379 35.0908 15.8384 35.26C15.7522 35.4034 15.6681 35.5727 15.583 35.716C15.7252 35.6298 15.8093 35.5457 15.8956 35.4314C15.8956 35.7441 15.7252 35.9985 15.583 36.254C15.4698 36.4803 15.1862 36.6528 14.9879 36.8221C15.0159 36.8512 15.2143 36.9363 15.2434 36.9644C15.4989 36.8781 15.584 36.738 15.6131 36.8221C15.6994 36.7089 15.7835 36.6237 15.8115 36.5386C15.9236 36.254 16.0939 36.0276 16.3774 35.9133C16.4917 35.8562 16.5758 35.771 16.661 35.6869C17.5126 34.8051 18.3922 33.9535 19.1576 33.0156C20.3499 31.5657 21.4279 30.0619 22.5641 28.585C23.0449 27.9598 23.613 27.3345 24.1229 26.7373C24.207 27.3906 24.151 28.0147 24.1229 28.613C24.0367 29.663 23.9806 30.7151 23.8966 31.7932C23.8675 32.219 23.8966 32.6448 23.8675 33.0717C23.8675 33.1849 23.7812 33.27 23.7812 33.3843C23.7812 33.6678 23.8675 33.9804 23.8675 34.265C23.7812 35.3161 23.6669 36.338 23.5818 37.3891C23.5527 37.6155 23.6659 37.844 23.7219 38.0435C23.5818 39.5764 23.8944 41.1966 23.6378 42.8158C23.8362 42.5032 23.8933 42.3048 23.8933 42.1065C23.9203 41.9362 23.8933 41.7658 23.8933 41.5675V41.2829C23.9203 40.7708 24.0335 40.2318 23.9774 39.7198C23.9203 39.1517 23.9203 38.6126 24.0345 38.0726C24.0917 37.8462 24.0065 37.5616 24.1488 37.277V37.7028C24.1208 39.3198 24.1779 40.9401 23.9515 42.5592C23.9224 42.7015 24.0378 42.9581 23.7252 42.929C23.4686 43.44 23.7812 43.8097 23.4988 44.0933C23.4406 44.1504 23.5527 44.4059 23.5818 44.5762C23.4675 44.9179 23.4675 44.9179 23.6378 44.946C23.6659 45.5712 23.7241 46.1382 23.751 46.7355C24.2038 45.6574 23.9774 44.5471 24.1779 43.4389C24.206 43.8938 24.2351 44.3487 24.2059 44.8295C24.2059 45.5701 24.1779 46.2795 24.1499 47.0179C24.1499 47.1602 24.1208 47.3025 24.0928 47.4448C24.0065 47.8436 23.9796 48.2404 23.8373 48.609C23.7241 48.8936 23.7812 49.3205 23.7812 49.6601V50.7413C23.8944 51.2243 23.7521 51.4798 23.8373 51.7633C23.751 52.049 23.7241 52.1341 23.751 52.2193L23.8373 52.6451C24.4054 52.588 24.1499 53.0149 24.3763 53.2412C24.206 53.4698 24.2631 53.5539 24.2631 53.6692C24.2631 53.9247 24.2361 54.1522 24.207 54.4076C24.207 55.0609 24.179 55.7142 24.179 56.3394C24.179 56.4257 24.207 56.5087 24.207 56.5939C24.207 56.6521 24.179 57.3916 24.179 57.3916C24.2361 57.4757 24.179 57.5608 24.0928 57.646C24.0658 57.646 23.9806 54.0379 23.9806 54.0379H23.5548C23.4988 55.7411 23.6411 57.2752 23.3285 58.8674C22.9878 58.8943 22.8757 58.9515 22.5049 58.9515C21.6252 58.9515 20.7455 58.9515 19.8659 58.9795C18.8159 58.9795 17.7961 59.0075 16.745 59.0075C16.2362 59.0075 15.6972 59.0657 15.1862 59.0657C14.5049 59.0657 13.7956 58.9795 13.1165 58.9795C12.0654 58.9795 11.0445 59.0657 9.99455 59.0938C9.22916 59.1218 8.46377 59.1218 7.69839 59.1509C7.18633 59.1778 6.67428 59.2048 6.16546 59.263C5.93907 59.291 5.73964 59.3762 5.45613 59.4614C5.36988 59.4614 5.17261 59.4333 5.00336 59.4614C4.71769 59.5185 4.46436 59.6877 4.17868 59.746C3.75287 59.8322 3.63968 59.9443 3.69574 60.3712V60.6547C3.66771 60.7108 4.32098 60.5685 4.32098 60.5685C4.26277 60.5685 4.23474 60.7388 4.1485 60.8811C4.37704 60.7949 4.51826 60.7388 4.66055 60.6827C5.08637 60.8822 5.45505 60.769 5.79462 60.8552C6.90066 61.1377 8.03473 61.2541 9.16879 61.3651C9.90723 61.4223 10.6166 61.4514 11.3539 61.4783C12.4028 61.5354 13.4528 61.5926 14.5017 61.5926C15.3814 61.5926 16.233 61.5063 17.1105 61.5063C18.3286 61.5063 19.5511 61.5624 20.7703 61.5926C21.0258 61.5926 21.3093 61.5624 21.5929 61.5624H23.6626C25.5082 61.5063 27.3516 61.4762 29.1961 61.4223C30.2471 61.3921 31.3251 61.336 32.374 61.3069L35.6081 61.2207C36.8564 61.1926 38.1047 61.1926 39.325 61.1668C40.2608 61.1668 41.1684 61.1344 42.1063 61.1075C43.1541 61.0794 44.2321 60.9943 45.2821 60.9382C45.8502 60.9091 46.4183 60.852 46.9854 60.7959C47.6667 60.7399 48.376 60.6558 49.0552 60.6267C50.0771 60.5685 51.1271 60.5404 52.149 60.4833C53.4254 60.3992 54.7018 60.286 56.0062 60.2569C57.1984 60.2009 58.4177 60.2289 59.61 60.2009C60.6599 60.1718 61.7099 60.1146 62.7879 60.0866L64.5774 60.0004C64.5774 60.0004 65.7675 59.9723 66.3637 59.9141C67.3846 59.8581 68.4054 59.7449 69.4274 59.7169C70.0785 59.6877 70.7318 59.7169 71.384 59.6877C72.4329 59.6597 73.5109 59.6015 74.5609 59.6015C74.9565 59.6015 75.3823 59.6597 75.8933 59.6877C75.6669 59.8872 75.5246 60.0004 75.3543 60.1427C75.4675 60.1707 75.5807 60.2289 75.6949 60.285C75.5246 60.3982 75.3823 60.4251 75.2422 60.4251C75.184 60.5685 75.1268 60.6256 75.0697 60.9102H75.5807C75.3823 60.9102 75.212 61.1657 75.0136 61.336C74.7873 61.2778 74.5878 61.336 74.4746 61.6486C74.673 61.7608 74.645 61.8459 74.6169 61.9613C74.2763 62.0734 74.0208 62.1876 74.1642 62.5563C74.0488 62.6124 73.9076 62.6695 73.7653 62.7547C73.6252 62.9811 73.3686 63.0382 73.4246 63.3508C73.5389 63.3778 73.651 63.4371 73.7373 63.4629C73.595 63.5201 73.4538 63.6052 73.3115 63.6613C72.8016 63.9739 73.029 64.1162 73.1422 64.2585C73.056 64.3156 72.9719 64.3717 72.8867 64.4008C72.9428 64.6563 73.0269 64.7134 73.056 64.7134C72.9428 64.7975 72.8005 64.9118 72.6301 65.0541C72.5439 65.3096 72.4307 65.4228 72.3175 65.5931C72.2043 65.7634 72.1472 65.9919 72.0049 66.1612C71.4099 66.8155 70.984 67.5842 70.2186 68.0941C69.934 68.2935 69.6796 68.549 69.4241 68.8055C68.9132 69.2874 68.4593 69.8275 67.9203 70.2824C67.2121 70.8786 66.4758 71.4176 65.7083 71.9576C64.7736 72.6109 63.8379 73.2642 62.9011 73.8894C62.3901 74.229 61.8231 74.4845 61.2841 74.7971C60.7451 75.1097 60.2341 75.3943 59.6951 75.7059C59.3545 75.9323 59.0418 76.2449 58.6732 76.4174C57.7374 76.8162 56.7435 77.1558 55.7798 77.5256C54.8419 77.9244 54.1628 78.264 53.4534 78.5195C52.8012 78.7459 52.1199 78.9184 51.4397 79.0585C51.2133 79.1167 50.9568 79.0585 50.7013 79.0876C50.2183 79.1738 49.7365 79.2881 49.2535 79.3442C48.0052 79.5145 46.7568 79.6288 45.5096 79.7991C44.7711 79.8853 44.0618 80.0255 43.3245 80.1117C42.8146 80.1397 42.2756 80.0837 41.7646 80.0837C41.3959 80.0837 40.9992 80.1699 40.6294 80.1128C40.0344 80.0266 39.4382 79.8864 38.8421 79.7721C38.702 79.7441 38.5014 79.6859 38.3893 79.7441C38.1629 79.8584 37.9624 79.688 37.735 79.7441C37.5948 79.7732 37.4525 79.6579 37.3102 79.6579C37.196 79.6309 37.0537 79.6881 36.9114 79.6579C36.5988 79.5738 36.3163 79.4606 35.9735 79.4886C35.6361 79.5166 35.2944 79.3463 34.9278 79.2622C34.4158 79.148 33.9361 79.0359 33.4229 78.9205C33.2257 78.8634 33.0564 78.7782 32.857 78.665C32.1185 78.665 31.6356 78.637 31.1818 78.4656C30.785 78.3254 30.4164 78.126 29.9906 78.1832C29.8784 78.2112 29.7933 78.1551 29.6779 78.1551C29.5917 78.0409 29.5087 77.8134 29.4246 77.8134C28.8576 77.8425 28.5169 77.3606 28.034 77.2173C27.7796 77.131 27.5812 76.8475 27.3257 76.7623C26.7005 76.5068 26.1916 75.9678 25.4823 75.8827C25.2559 75.8536 25.0296 75.7404 24.773 75.6563C24.8592 75.7684 24.9131 75.8536 24.9994 75.9387C24.1768 75.5399 23.4115 75.0871 22.645 74.6602C22.5329 74.6322 22.4477 74.5201 22.3626 74.4619L21.5972 73.9509C21.1714 74.0371 21.001 73.8646 20.8857 73.8086C20.1203 73.2696 19.2417 72.9278 18.5033 72.3317C18.1907 72.0751 17.8241 71.9048 17.5978 71.5922C17.1989 71.1093 16.717 70.7686 16.178 70.4851C15.7533 70.2587 15.3566 70.0021 14.9599 69.7467C14.7604 69.6044 14.561 69.434 14.561 69.1214C14.561 68.922 14.4769 68.7225 14.2214 68.8368C14.1082 68.6665 13.995 68.4681 13.8527 68.411C13.5121 68.2709 13.2857 68.0121 13.0302 67.7858C12.7747 67.5594 12.5775 67.2467 12.2648 67.1336C11.6967 66.9072 11.3561 66.4242 11.0165 66.0264C10.2209 65.0886 9.5116 64.0645 8.77424 63.0727C8.71711 62.9865 8.60392 62.9293 8.51875 62.8442C8.63194 63.1568 8.77424 63.4123 8.91546 63.6958C8.63302 63.5826 8.43467 63.3832 8.26434 63.1848C8.23524 63.2139 10.2209 66.4803 10.2209 66.4803C10.3934 66.7358 10.5336 66.9923 10.7039 67.2478C10.2781 67.2759 9.99455 67.0484 9.85225 66.7929C9.59784 66.3401 9.31325 66.0555 8.74621 66.1138C8.69016 65.9132 8.63302 65.6858 8.60607 65.4885C8.49072 65.4885 8.40664 65.4885 8.20721 65.4594C8.60607 66.0847 8.94564 66.6237 9.31432 67.2489C9.17095 67.1627 9.08794 67.1066 9.02865 67.0786C9.53855 67.6176 9.90723 68.3 10.5594 68.6417C10.7017 69.2939 11.4391 69.6065 11.6094 70.2318C11.4693 70.2026 11.3528 70.1746 11.2105 70.1455C10.9842 69.862 10.7287 69.5785 10.4743 69.2659C10.5303 69.4642 10.6144 69.6345 10.7287 69.7768C11.0693 70.2026 11.3819 70.6285 11.7787 70.9982C11.921 71.1427 12.1193 71.1998 12.1193 71.4553C12.3457 71.5685 12.4319 71.5954 12.516 71.5954C12.5742 71.7679 12.4891 72.0234 12.8286 71.9663C13.055 72.3921 13.2814 72.3921 13.594 72.2509C13.9638 72.6206 14.1632 72.6497 14.4176 72.4233C14.4176 72.5635 14.4457 72.7058 14.4457 72.8201C14.5588 72.7629 14.5319 72.6778 14.5319 72.5355C14.672 72.6487 14.7583 72.7058 14.8143 72.7618C15.0978 73.1607 15.3533 73.5294 15.75 73.842C16.289 74.2969 16.772 74.7799 17.2808 75.2057C18.2747 76.0304 19.3829 76.7128 20.4879 77.3369C21.8505 78.1045 23.156 78.9281 24.5455 79.6654C26.2186 80.5472 28.0059 81.1444 29.8493 81.5703C30.5306 81.7126 31.1828 81.8538 31.8652 82.023C32.4581 82.1955 33.0553 82.451 33.6515 82.5922C34.5592 82.7916 35.4949 82.962 36.4026 83.1312C36.5998 83.1603 36.8014 83.1894 37.0278 83.2175C37.2811 83.2746 37.5927 83.1603 37.6498 83.2466C37.7921 83.4729 37.9053 83.3587 38.0756 83.3307C38.274 83.2735 38.5014 83.2735 38.7278 83.2735C39.5223 83.3015 40.2877 83.4719 41.0822 83.4158C41.2547 83.4158 41.5091 83.2724 41.6514 83.556C41.9058 83.4428 42.0481 83.4428 42.1613 83.4158C42.1915 83.6702 42.1613 83.6702 42.1074 83.6983C42.0492 83.7263 41.964 83.7554 41.8508 83.8405C42.8717 84.0389 43.8365 84.0669 44.686 83.8405C46.1629 83.9537 47.4392 83.7834 48.6595 83.3576C48.7727 83.4999 48.8579 83.6983 49.0282 83.4147C49.0843 83.3285 49.2266 83.2994 49.3408 83.2714C49.5952 83.2142 49.9079 83.101 50.1342 83.1851C50.3908 83.2714 50.476 83.045 50.6733 83.045C51.015 83.045 51.3265 83.0159 51.6391 82.9587C51.8095 82.9307 51.9798 82.8456 52.1782 82.7884C51.9518 82.6731 51.7254 82.645 51.5529 82.645C51.8946 82.4747 52.2062 82.3324 52.5188 82.1923C52.4617 82.2764 52.4045 82.3895 52.2924 82.3895H52.6881C52.6018 82.3895 52.4886 82.645 52.3474 82.8154C53.3672 82.5599 54.3029 82.3324 55.2117 82.1039C54.899 81.5088 55.5512 81.7082 55.7787 81.3665C55.4952 81.4528 55.2117 81.5368 54.9271 81.5929C55.8919 81.111 56.8847 80.6852 57.8485 80.2594C57.7083 80.4297 57.5359 80.5149 57.2825 80.6583C57.4529 80.6852 57.566 80.6852 57.6512 80.7122C58.104 80.8555 57.9919 80.4297 58.1331 80.1732C58.6721 80.1732 58.8985 80.0891 59.154 80.0028C59.4375 79.9166 59.721 79.8325 60.0056 79.7193C60.4583 79.521 60.8842 79.2665 61.338 79.0402C61.4242 79.01 61.5644 79.0402 61.6787 79.0402C61.9913 78.8397 62.1034 78.6693 62.1886 78.6974C62.5874 78.7545 62.8677 78.6111 62.982 78.2446C63.1803 78.1012 63.3226 77.988 63.4638 77.9018C64.0869 77.5611 64.682 77.2205 65.3072 76.8798C65.5336 76.8798 65.6479 76.8798 65.7039 76.8507C66.0748 76.6782 66.4154 76.482 66.755 76.2826C66.6688 76.2546 66.4715 76.1425 66.4715 76.1425C66.7539 76.0843 66.838 76.0562 67.0105 75.9991C67.6896 75.2014 68.6275 74.6624 69.3357 74.0371C69.6484 74.0091 69.6484 73.9239 69.6484 73.8679C69.7605 73.7256 69.8748 73.5553 70.0149 73.441C70.6401 72.8729 71.3193 72.3899 71.8874 71.7938C72.7099 70.968 73.5044 70.1153 74.2418 69.2346C74.9209 68.439 75.6044 67.6445 76.1714 66.7638C76.9659 65.5424 77.6461 64.2919 78.3555 63.0123C78.8664 62.1046 79.3203 61.1959 79.8323 60.2871C79.8862 60.2009 80.0016 60.0877 80.0867 60.0877C80.8521 60.0014 81.6197 59.9475 82.357 59.8613C82.5274 59.8333 82.7257 59.7212 82.896 59.6349C82.8098 59.4926 82.7537 59.3223 82.6697 59.18C82.5554 59.0075 82.3851 58.8674 82.2708 58.6949C82.1587 58.5548 82.0735 58.3823 81.9883 58.213C81.9021 58.0729 81.818 57.9586 81.7329 57.8142C81.5604 57.5015 81.3911 57.1889 81.2478 56.8504C81.2197 56.7642 81.1615 56.624 81.1917 56.5378C81.7027 55.4307 81.901 54.2373 82.3829 53.1291C82.8648 51.9929 83.0082 50.7144 83.2345 49.493C83.4329 48.3288 83.5472 47.1645 83.6873 46.0002C83.7735 45.1767 83.8867 44.3811 83.9137 43.5575C84.0862 42.2509 84.028 41.0285 83.9999 39.806C83.9719 38.728 83.9137 37.6198 83.8598 36.5396L83.8565 36.5364ZM12.6809 71.5049C12.4826 71.2785 12.3123 71.0219 12.1139 70.7956L12.2002 70.7093C12.5095 71.051 12.8222 71.3917 13.1337 71.7614C12.9634 71.6752 12.765 71.6191 12.6809 71.5049ZM13.1337 71.7614C13.22 71.7323 13.3062 71.7323 13.3903 71.7043C13.4765 71.8466 13.5326 72.0169 13.6167 72.1873C13.22 72.1582 13.0216 71.9878 13.1348 71.7614H13.1337ZM42.6388 83.4934V83.4072C43.1778 83.3511 43.6877 83.294 44.2268 83.2379V83.3209C43.6877 83.4072 43.1778 83.4611 42.6388 83.4913V83.4934ZM49.786 82.755C49.3904 82.8412 48.9646 82.8984 48.5679 82.9555C48.4256 82.9835 48.2553 83.1258 48.1992 82.8693C48.1421 82.8984 48.0849 82.8984 48.0289 82.9275C48.169 83.3522 48.5108 83.0116 48.7943 83.1819C48.169 83.2681 47.5761 83.3242 46.9789 83.4083V83.3522C47.1514 83.3242 47.3487 83.2951 47.5179 83.266V83.1819C47.2355 83.1528 46.952 83.1247 46.6663 83.1247C46.5833 83.1247 46.469 83.239 46.3839 83.2671C46.2707 83.2951 46.1575 83.3242 46.0152 83.3242C45.5333 83.3522 45.0514 83.3522 44.5965 83.3802C44.5674 83.3802 44.5103 83.3522 44.4822 83.3522V83.266C46.3828 83.0116 48.2553 82.7561 50.1558 82.5006C50.1849 82.5566 50.1849 82.6138 50.2129 82.6698C50.0426 82.6698 49.9294 82.7291 49.7871 82.7561L49.786 82.755ZM50.2129 82.4726C50.8662 82.3863 51.4634 82.3303 52.0865 82.2462C50.7821 82.6149 50.3563 82.6709 50.214 82.4726H50.2129ZM25.5039 25.117C26.4094 23.8666 27.3473 22.6161 28.255 21.3386C28.5385 20.9667 28.7649 20.5689 29.0484 20.2002C29.1346 20.086 29.2478 20.0299 29.389 19.9156L29.361 19.8617C29.4742 19.7184 29.5874 19.603 29.6445 19.4909C29.789 19.2645 29.8741 19.008 29.9873 18.7525C30.0153 18.6986 30.1005 18.6414 30.1005 18.6414C30.4994 18.8398 30.4994 18.4151 30.6395 18.2717C30.895 17.9871 31.1505 17.6755 31.3769 17.3909C31.5472 17.1646 31.7175 16.9651 31.8598 16.7096C31.8878 16.6234 31.8027 16.4833 31.7736 16.3679H31.6895C31.7757 16.3119 31.8598 16.2278 31.945 16.1696C31.973 16.1696 31.973 16.1696 32.001 16.1415C32.1714 15.885 32.3417 15.6295 32.512 15.402C32.8516 14.9493 33.2203 14.4943 33.617 14.0976C33.5609 14.2378 33.5038 14.3811 33.4467 14.4943C33.4758 14.4943 33.4758 14.5234 33.5038 14.5234C33.8444 14.0685 34.2131 13.6427 34.5538 13.1867C34.5247 13.1598 34.4966 13.1307 34.4675 13.1307C34.3274 13.2729 34.2131 13.4152 34.0708 13.5575C34.0428 13.5284 34.0148 13.5004 33.9846 13.5004C34.2702 13.1306 34.5538 12.762 34.8362 12.3362C34.8933 12.4224 34.9505 12.5345 35.0626 12.762C35.1779 12.4785 35.2911 12.2801 35.3752 12.0807C35.2911 12.1669 35.1779 12.251 35.0928 12.3372L35.0065 12.251L35.5175 11.4856C36.0565 10.7181 36.5955 9.92249 37.1345 9.15495C37.334 8.87143 37.5873 8.64397 37.7598 8.35938C38.2988 7.28137 39.1504 6.42759 39.8015 5.43366C39.9438 5.23531 40.1422 5.06498 40.3125 4.89466C40.4526 4.72217 40.568 4.78039 40.6812 4.92268C41.4466 5.88858 42.212 6.88251 42.9773 7.8484C43.5465 8.55989 44.1136 9.23904 44.6526 9.97855C45.3048 10.8884 45.9289 11.7972 46.5822 12.7059C47.3196 13.757 48.0569 14.808 48.7663 15.886C49.8443 17.4783 50.8651 19.0694 51.9431 20.6595C52.7376 21.8237 53.5321 22.961 54.2975 24.1253H52.8487C51.5163 24.0983 50.1536 23.9851 48.8212 24.0412C47.0059 24.1274 45.1625 24.3258 43.3471 24.4681C41.0488 24.6675 38.7224 24.6945 36.4263 24.6945C35.6016 24.6945 34.7791 24.8098 33.9576 24.8669C32.9637 24.923 31.9989 24.9801 31.006 25.0071C29.8418 25.0653 28.7099 25.0933 27.5456 25.1224C26.8924 25.1505 26.2121 25.1224 25.5028 25.1224L25.5039 25.117ZM58.0414 38.1825V38.4391C58.0134 38.4391 57.9854 38.4682 57.9283 38.4682C57.8151 38.0693 57.7019 37.6424 57.5596 37.2447C57.2761 36.42 56.9634 35.5953 56.4525 34.8579C55.8833 34.0634 55.3745 33.2409 54.8053 32.4162C54.6651 32.2168 54.4646 32.0465 54.2943 31.8772C53.6981 31.2229 53.102 30.5405 52.3366 30.0586C51.2015 29.3472 50.0383 28.751 48.79 28.239C48.4493 28.0988 48.1378 27.9263 47.7982 27.728H48.4773L53.3284 27.6417C54.3784 27.6148 55.4003 27.6148 56.4492 27.5577C56.7036 27.5577 56.8459 27.6439 56.9882 27.8703C57.2426 28.2961 57.4981 28.7219 57.7816 29.1488C57.8108 29.2049 57.8679 29.2889 57.8679 29.3752C57.8679 30.0004 57.8679 30.6537 57.8959 31.2789C57.9229 31.9322 57.9822 32.5575 58.008 33.2107C58.008 33.864 57.9509 34.5453 57.98 35.2266C58.0091 36.1936 58.0371 37.1886 58.0371 38.1804L58.0414 38.1825ZM27.5165 28.6702C28.85 28.613 30.1253 28.5279 31.4319 28.4707C32.4506 28.4136 33.5016 28.3845 34.5214 28.3284C34.9472 28.3015 35.345 28.2745 35.7698 28.3284C35.317 28.557 34.8621 28.7844 34.4654 29.0679C33.9544 29.4086 33.4736 29.8624 32.9615 30.2322C32.4495 30.6009 31.9956 31.0558 31.5709 31.5387C31.0319 32.1909 30.4358 32.7591 29.8677 33.3843C29.4688 33.8392 29.016 34.265 28.6765 34.748C28.1946 35.3732 27.7688 36.0524 27.3149 36.7639C27.4572 34.0645 27.6276 31.3954 27.5133 28.668L27.5165 28.6702ZM46.0421 55.9977C45.1334 56.2241 44.1987 56.4807 43.2609 56.5939C42.4674 56.7081 41.6438 56.6801 40.8213 56.6801C40.0818 56.6801 39.3725 56.6521 38.6351 56.5939C37.8126 56.5098 36.9901 56.4246 36.1956 56.0549C35.5132 55.7422 34.8049 55.4587 34.1258 55.117C33.4423 54.7763 32.7621 54.3796 32.2501 53.7544C31.8835 53.2984 31.3715 52.9297 30.9176 52.5319C31.0039 52.8726 31.2012 53.1572 31.5138 53.3555C31.3715 53.5258 31.1731 53.4418 30.8885 52.9858C30.8044 53.0429 30.7193 53.072 30.6622 53.1C30.7484 52.9006 30.8325 52.7012 30.9176 52.5319C30.8044 52.3055 30.6622 52.049 30.549 51.8204C30.3226 51.4517 30.0962 51.055 29.8968 50.6853C29.8396 50.599 29.8396 50.515 29.7836 50.4298C29.6413 50.2595 29.499 50.0881 29.3847 49.9177C29.1583 49.5782 28.96 49.2095 28.6765 48.8678C28.6765 48.954 28.7056 49.0381 28.7056 49.1524C28.6765 49.1524 28.6484 49.1804 28.6484 49.1804L28.0512 47.7315C28.0232 47.7315 28.0232 47.7315 27.9952 47.7596L28.5051 49.6353C28.477 49.6353 28.449 49.6623 28.4188 49.6623C28.3358 49.5501 28.2506 49.4359 28.1924 49.2957C28.1364 49.0672 27.966 49.0672 27.8259 49.1524C27.7397 49.2095 27.6825 49.4078 27.7116 49.493C27.9111 49.976 28.1375 50.4589 28.3649 50.9418C28.421 51.1122 28.4781 51.2545 28.5633 51.4248C28.5924 51.4819 28.6775 51.538 28.6775 51.6232C28.7918 51.8495 28.877 52.0759 29.0182 52.2764C29.2737 52.6171 29.5572 52.9577 29.8127 53.2984C30.066 53.639 30.2924 54.0099 30.5199 54.3494C30.5479 54.4066 30.633 54.4066 30.66 54.4357C30.8034 54.8615 31.2852 55.173 31.6259 55.0027C31.7121 55.656 32.4204 55.8834 32.7039 56.5087C32.3633 56.3664 32.1088 56.2532 31.8814 56.1389C31.8523 56.167 31.8523 56.195 31.8232 56.2521C32.1638 56.4225 32.5045 56.5928 32.8149 56.7911C33.1006 56.9636 33.3841 57.1329 33.6396 57.3301C33.9803 57.6428 34.3781 57.8152 34.8578 57.9274C34.8319 57.8411 34.8039 57.812 34.8039 57.812C35.5973 58.1818 36.4209 58.5795 37.044 58.89C34.0935 58.9482 30.9446 59.0054 27.6815 59.0625C27.6815 58.5235 27.6534 58.0114 27.6534 57.4714C27.6534 57.245 27.7095 57.0455 27.6804 56.8181C27.5941 55.5137 27.5941 54.205 27.4249 52.9265C27.2556 51.5639 27.2556 50.2282 27.2847 48.8624C27.3117 48.1261 27.2556 47.3596 27.2265 46.6201C27.2265 45.6262 27.2265 44.6581 27.2567 43.6664C27.2567 43.5241 27.3139 43.4109 27.371 43.2675H27.4572C27.4842 43.3257 27.4572 43.4109 27.5111 43.44C27.5974 43.5262 27.7397 43.6664 27.7968 43.6383C27.966 43.5241 28.2215 43.4119 28.2787 43.2395C28.4188 42.8999 28.477 42.5301 28.477 42.1895C28.477 41.9351 28.5913 41.7648 28.7034 41.5933C28.7616 41.5071 28.7896 41.423 28.8468 41.3098C28.7336 41.2236 28.6204 41.1675 28.4781 41.0543C28.5924 40.7417 28.5643 40.372 28.9902 40.2027C29.0462 40.1736 29.0462 40.0302 29.0764 39.9461C29.1033 39.7165 29.1303 39.461 29.1605 39.2347C29.2165 39.3209 29.2467 39.3479 29.3006 39.4039C29.3308 39.3479 29.3588 39.3177 29.3588 39.3177C29.3588 39.2056 29.3308 38.9781 29.3588 38.9781C29.6995 38.921 29.5572 38.5523 29.7275 38.382C29.7545 38.3518 29.6984 38.2666 29.6984 38.2095C29.6984 38.1534 29.6984 38.0693 29.7264 38.0693C30.1221 37.9831 30.066 37.5573 30.3215 37.3578C30.4077 37.3007 30.4347 37.2177 30.5479 37.0743C30.7743 37.471 30.3776 37.6705 30.3495 37.954C30.8303 37.6705 30.9726 36.9892 30.6891 36.7897C30.8023 36.7035 30.9155 36.5914 31.0017 36.4771C31.3143 36.1365 31.6528 35.8238 31.9374 35.4832C32.1369 35.2288 32.2501 34.9162 32.4484 34.6607C32.5627 34.5184 32.7891 34.4052 32.9594 34.3189C33.4704 34.0365 33.9512 33.7239 34.2638 33.2409C34.3209 33.1838 34.4061 33.1277 34.4902 33.0706C34.5764 33.0135 34.7467 33.0135 34.7748 32.9283C34.8039 32.8722 34.7187 32.7299 34.6616 32.6448C34.7737 32.5877 34.888 32.4745 35.1143 32.3602C35.0281 32.5305 35.0011 32.6448 34.944 32.7591L35.0841 32.8992C35.3407 32.7008 35.7374 32.4745 35.9929 32.3041C35.9929 32.2772 35.8506 32.164 35.8506 32.164C35.6814 32.2502 35.4259 32.3904 35.1715 32.5046C35.2254 32.4184 35.2254 32.3623 35.2577 32.3343C35.6533 32.0788 36.05 31.8233 36.4759 31.6228C37.4676 31.1701 38.4616 30.7151 39.4544 30.2893C39.6247 30.2031 39.8533 30.2613 40.0505 30.2613C40.1346 30.2613 40.1907 30.2613 40.2769 30.2333C40.7297 30.091 41.1846 29.9487 41.6385 29.8344C41.8357 29.7784 42.0621 29.7503 42.2637 29.7503C43.1121 29.7773 43.9637 29.7773 44.8143 29.8344C45.1829 29.8624 45.5236 29.9476 45.8642 30.0608C46.289 30.2042 46.7428 30.4025 47.1406 30.5998C47.6225 30.8585 48.0763 31.141 48.5312 31.4536C49.3538 31.9926 50.1192 32.5898 50.9417 33.0728C51.7362 33.5557 52.3603 34.209 52.8713 34.9485C53.4966 35.8281 54.2048 36.6237 54.4883 37.7028L54.9131 39.5785C54.9993 39.9192 55.1977 40.2598 55.1125 40.6566C54.9691 41.368 54.8559 42.1065 54.7427 42.8169C54.6867 43.1026 54.6295 43.3882 54.6587 43.6685C54.7126 44.5525 54.373 45.3179 54.0334 46.1134C53.9191 46.3689 53.7488 46.6255 53.6076 46.909C53.6356 46.937 53.8059 47.0233 53.834 47.0233L54.0895 46.5123C54.1186 46.5123 54.1186 46.5123 54.1466 46.5414C54.0043 46.9381 53.8911 47.365 53.7477 47.7628C53.4092 48.6435 53.0686 49.5523 52.6428 50.4039C52.4164 50.8869 52.0175 51.2847 51.7351 51.7407C51.4526 52.1374 51.2252 52.5632 50.9417 52.9329C50.6862 53.2456 50.4318 53.5582 50.09 53.7846C49.3247 54.3527 48.5302 54.9208 47.7076 55.3757C47.1977 55.6883 46.6016 55.8587 46.0346 56.0009L46.0421 55.9977ZM30.9209 54.4885L30.8928 54.5176C30.8336 54.4896 30.7484 54.4616 30.6923 54.4044L30.011 53.3803C29.955 53.2962 29.9248 53.2111 29.955 53.0979C30.2676 53.5808 30.5802 54.0357 30.9198 54.4885H30.9209ZM48.5679 58.3801C49.8432 57.8411 50.8932 57.0757 51.8558 56.1939C51.9992 56.0516 52.1404 55.9104 52.3107 55.795C53.503 55.0577 54.3805 54.0347 55.1761 52.8984C56.0838 51.5919 56.6799 50.115 57.4184 48.7233C57.4744 48.609 57.5305 48.4969 57.5876 48.4107C57.5305 51.649 57.9002 54.8302 58.325 58.0405C55.12 58.1537 51.8569 58.2669 48.5668 58.3812L48.5679 58.3801ZM77.3324 57.5285C77.3044 57.5856 77.2462 57.6428 77.2192 57.701C77.1901 57.6428 77.1901 57.5576 77.1621 57.4422C76.9918 57.8982 76.6231 57.6708 76.3676 57.6708C74.8368 57.6999 73.2759 57.6999 71.743 57.6999C70.2682 57.6999 68.7655 57.6999 67.2908 57.7258C66.8078 57.7258 66.2968 57.839 65.8139 57.8681C64.6518 57.9241 63.4886 57.9543 62.3255 57.9813C62.2392 57.9813 62.1551 57.8411 62.0128 57.7268C61.9848 57.784 61.9266 57.8691 61.8425 57.9823C61.8123 57.9263 61.7563 57.8702 61.6991 57.7851C61.6711 57.8713 61.642 57.9554 61.6129 58.0114H61.531C61.4738 57.6147 61.3606 57.246 61.3606 56.8472C61.3606 55.9956 61.4469 55.1439 61.4738 54.2901C61.5029 53.8934 61.4738 53.5248 61.4738 53.1539C61.5881 53.2402 61.6733 53.2973 61.7865 53.3803C61.8425 53.2693 61.8996 53.1841 61.9568 53.1C61.9568 53.1 61.8996 53.0698 61.8425 53.0138C61.8964 52.9847 61.9546 52.9275 61.9546 52.8995C61.9827 52.8133 62.0409 52.7292 62.0409 52.6731C62.0409 52.4737 61.9827 52.3034 61.9546 52.1341C61.9827 52.1341 62.0107 52.1341 62.0409 52.1039L62.2101 52.9556H62.2964C62.1821 52.7583 62.5508 52.5869 62.2392 52.3605C62.2112 52.3314 62.2672 52.1611 62.2672 52.0759C62.181 51.9067 62.1271 51.7363 62.0409 51.5089C62.0689 51.4809 62.1541 51.4517 62.2392 51.4226C62.126 51.3666 62.0409 51.3105 61.9557 51.2825C62.2392 51.0259 62.2392 50.8836 61.9837 50.6001C62.0419 50.5732 62.098 50.5732 62.098 50.5462C62.098 50.2897 62.098 50.0342 62.0419 49.7808C61.9848 49.4941 62.1282 49.1556 61.7013 48.9831C61.7293 49.0693 61.7584 49.1254 61.8145 49.2095C61.8145 49.2095 61.7282 49.2386 61.6442 49.2957C61.2755 48.954 61.504 48.498 61.4178 47.9881C61.6161 48.0452 61.7584 48.1024 61.8996 48.1606C61.8425 47.9601 61.7013 47.7326 61.6161 47.4771H61.5008V45.6014C61.5008 45.6305 61.6991 45.6305 61.8134 45.6596C61.8134 45.6305 61.8404 45.6025 61.8404 45.5734C61.7541 45.4602 61.6409 45.347 61.5277 45.2047L61.5849 45.1475C61.3585 44.8651 61.4717 44.4684 61.4717 44.3822V42.3932C61.7563 42.6778 61.3315 43.0465 61.7563 43.2168V42.9333H61.7272C61.6991 42.5075 61.6991 42.0817 61.6711 41.6548H61.6151C61.5859 41.713 61.5859 41.741 61.5568 41.7982H61.5008L61.6711 35.0089C61.9546 35.3775 62.2662 35.7203 62.4645 36.0869C63.1178 37.2813 63.9683 38.3043 64.7628 39.3834C65.4441 40.3213 66.0672 41.3432 66.6925 42.3091C67.4579 43.4734 68.1952 44.6376 68.9617 45.8019C69.5287 46.6837 70.1259 47.5644 70.7188 48.4171C71.2579 49.1825 71.827 49.9221 72.3941 50.6616C72.8749 51.3148 73.3858 51.9681 73.8677 52.6214C74.4358 53.417 75.0029 54.2115 75.571 54.979C75.8534 55.3757 76.166 55.7735 76.4765 56.1713C76.649 56.3977 76.9034 56.5701 77.0737 56.7103C77.0468 56.7103 77.0177 56.7103 76.9616 56.6822C77.0478 56.7954 77.1017 56.8806 77.16 56.9377C77.4726 57.1081 77.5006 57.2784 77.3303 57.535L77.3324 57.5285ZM78.7791 50.4287V50.2293C78.7791 50.2853 78.8071 50.3694 78.7791 50.4276V50.4287ZM79.7439 37.9022C79.7148 37.9022 79.5456 37.7298 79.5176 37.7017C79.4884 37.788 79.5176 37.8721 79.4604 37.9863C79.4313 37.9022 79.234 37.9303 79.234 37.8462C79.2049 38.2429 79.4033 38.6407 79.3742 39.0385C79.4604 38.9813 79.8 38.9522 79.8852 38.8681C79.9143 38.8962 79.9714 38.9242 79.9994 38.9242C79.4313 39.3511 79.5736 39.7758 79.8291 40.2609C79.8852 40.373 80.0555 40.6005 79.8852 40.828C79.8291 40.8851 79.9143 41.0543 79.9423 41.1977H80.0253V41.2516L79.7698 41.3379C79.7138 41.2516 79.3742 41.0834 79.3742 40.939V42.39C79.6577 42.4762 79.6577 42.8729 79.7709 43.0724C79.8302 42.9861 79.8571 42.929 79.8862 42.846L79.9153 42.8719C79.8862 43.0422 79.8582 43.2125 79.8011 43.3839C79.745 43.6383 79.6879 43.8658 79.6609 44.1213C79.6609 44.1493 79.7148 44.2075 79.7148 44.2345C79.4044 44.946 79.5747 45.7394 79.4615 46.4767C79.3753 47.0157 79.4615 47.5871 79.4044 48.1541C79.3462 48.6371 79.2319 49.148 79.1198 49.631C79.0907 49.7172 79.0335 49.7442 78.8934 49.8013C78.9494 49.4607 78.9214 49.2332 78.8643 48.9206C78.8341 48.9206 78.4654 48.7222 78.4363 48.7222C78.4363 49.1211 78.6627 49.6601 78.7489 50.1129C78.6627 50.0848 78.3231 49.8865 78.2962 49.8865C78.238 50.2271 78.238 50.682 78.2099 51.0507C78.1808 51.3353 77.9264 51.5897 77.8973 51.9024C77.8973 52.0748 78.0957 52.187 78.0676 52.4715H78.294C78.294 51.9045 78.5506 51.3935 78.5506 50.7963H78.6347C78.6638 50.8535 78.7489 50.9106 78.7209 50.9386C78.6638 51.2512 78.5484 51.5919 78.5786 51.9045C78.5786 52.0748 78.7188 52.2452 78.6648 52.4435C78.6066 52.616 78.5786 52.7852 78.5495 53.0407C78.5204 52.8984 78.4924 52.8424 78.4924 52.7572C78.4643 52.7572 78.2089 52.7281 78.1797 52.7281C78.1517 52.8984 78.3792 53.0688 78.3501 53.2111C78.322 53.2391 78.294 53.2391 78.2369 53.2682L77.3012 51.9034C76.5617 50.8254 75.8243 49.7442 75.0869 48.6371C74.8875 48.3525 74.7172 48.069 74.5749 47.7854C73.6963 46.2784 72.7315 44.8295 71.6535 43.4378C70.832 42.3878 70.1766 41.2495 69.4112 40.1445C68.704 39.0934 67.9947 38.0704 67.2854 37.0183C67.0299 36.6787 66.7184 36.3661 66.4909 35.9963C65.7546 34.8321 65.1003 33.6387 64.3651 32.4745C63.7398 31.5075 63.0607 30.5696 62.4074 29.6328C62.181 29.3202 61.9546 28.9785 61.7261 28.6378C61.6981 28.5839 61.67 28.5268 61.67 28.4416C61.6129 27.8164 61.5558 27.1911 61.5277 26.595C61.5277 26.0269 61.5849 25.4588 61.5849 24.8616V24.3506C61.5849 24.2083 61.6118 24.0951 61.6118 23.9517C61.6388 23.9248 61.6679 23.8676 61.6959 23.8396C60.8734 23.8396 60.0218 23.8094 59.1992 23.8396C58.6602 23.8666 58.3767 23.6391 58.008 23.2413C56.93 22.0199 56.1355 20.6282 55.1998 19.3217C54.3202 18.0712 53.4125 16.8487 52.5048 15.6273C51.7663 14.6334 51.0279 13.6675 50.2916 12.6736C49.468 11.5374 48.6746 10.4011 47.823 9.26491C46.801 7.9023 45.7511 6.53754 44.7022 5.17494C44.217 4.54969 43.678 3.95355 43.139 3.2992C43.5088 3.35741 43.8505 3.41347 44.1901 3.44258L45.5527 3.52882C46.5736 3.61182 47.5945 3.66896 48.6143 3.8091C49.4659 3.92445 50.3175 4.09477 51.1972 4.23599C53.0707 4.54861 54.9141 5.06067 56.7015 5.65681C57.7515 5.99746 58.7713 6.45238 59.7954 6.87819C62.0915 7.81606 64.2767 8.95228 66.4327 10.1446C67.1118 10.5143 67.5107 11.1105 68.0195 11.6505C68.7579 12.4181 69.4964 13.1846 70.2046 13.979C71.0261 14.9169 71.7915 15.8828 72.587 16.8487C73.2953 17.7003 74.0316 18.552 74.743 19.4057C74.9694 19.6612 75.1419 19.9739 75.3381 20.2574C75.7909 20.9398 76.3029 21.5941 76.6996 22.3315C76.9821 22.8726 77.1524 23.4979 77.3508 24.094C77.6332 24.9747 77.9178 25.8264 78.2024 26.7071C78.3997 27.3604 78.5689 28.0438 78.7112 28.723C78.8255 29.179 78.7974 29.6609 78.9376 30.1136C79.1101 30.713 78.9376 31.3641 79.1101 31.9624C79.137 32.0195 79.164 32.1047 79.1942 32.1618C79.3073 32.2739 79.3925 32.3882 79.2222 32.5585C79.1952 32.5866 79.1952 32.6987 79.2222 32.7849C79.2804 32.7289 79.3084 32.6717 79.3656 32.5866C79.3656 32.6437 79.3925 32.6728 79.3925 32.6998C79.3925 32.8119 79.3634 32.9261 79.3925 33.0393C79.3925 33.0954 79.4486 33.1795 79.4766 33.2377C79.5337 33.1795 79.5898 33.1514 79.703 33.0652C79.9585 34.0322 79.9876 34.9981 79.9876 35.992C79.9876 36.9299 80.1568 37.8677 79.7612 38.7765C79.8453 38.4639 79.6469 38.1782 79.7321 37.8947L79.7439 37.9022Z" fill="#9C447F"/>
<path fill-rule="evenodd" clip-rule="evenodd" d="M61.618 48.9497C61.645 48.9497 61.6741 48.9788 61.6741 48.9788L61.645 48.9465C61.645 48.9196 61.645 48.9196 61.617 48.9465L61.618 48.9497ZM66.0993 77.0168C65.7867 77.2432 65.4741 77.4426 65.0774 77.5278C65.0472 77.4998 65.0472 77.4706 65.0192 77.4415C65.3318 77.2432 65.6714 77.0448 65.984 76.8454C66.0131 76.8993 66.0702 76.9575 66.0982 77.0146L66.0993 77.0168ZM12.9082 38.5232C13.2208 38.1276 13.5334 37.7298 13.8719 37.332C13.8989 37.3601 14.1252 37.4183 14.1543 37.4452C13.8417 37.8441 13.4159 38.3831 13.1044 38.8089C13.0462 38.7518 12.961 38.5534 12.9049 38.5243L12.9082 38.5232ZM4.85004 52.4457C4.62366 51.9628 4.39728 51.4507 4.1709 50.9689C4.19893 50.9397 4.39728 50.8546 4.42531 50.8546C4.73793 51.3073 4.87807 51.8464 5.10661 52.3315C5.10661 52.3315 4.88023 52.4446 4.85112 52.4446L4.85004 52.4457ZM12.0856 38.8089C11.9153 39.0655 11.745 39.3501 11.5747 39.6066C11.5466 39.5764 11.234 39.7187 11.206 39.6907C11.3763 39.4352 11.8011 38.9792 11.9714 38.7248C12.0005 38.7528 12.0285 38.782 12.0856 38.8111V38.8089ZM63.0647 78.1832C63.0917 78.1832 63.0917 78.1552 63.1208 78.1552C63.3191 78.1832 63.5455 78.2112 63.773 78.2112C63.4021 78.4667 63.1747 78.4376 63.0615 78.1832H63.0647ZM12.1395 40.0023C12.1697 39.916 12.2258 39.8319 12.2829 39.7468C12.339 39.7468 12.4231 39.7177 12.4231 39.7177C12.5384 39.5193 12.5384 39.377 12.6516 39.2067C12.6236 39.1787 12.5945 39.1787 12.5654 39.1496C12.3961 39.266 12.2258 39.4083 12.0555 39.5215C12.1126 39.5775 12.1126 39.6077 12.1126 39.6638C11.8862 39.6347 11.8 39.75 11.6868 40.0605C11.6588 40.1467 11.5165 40.1747 11.3742 40.2869C11.3461 40.3451 11.3181 40.4874 11.261 40.6286L11.2901 40.6588C11.2329 40.7159 11.1478 40.745 11.1478 40.745C10.9775 40.9143 10.7791 41.0576 10.6088 41.2269C10.5807 41.3131 10.5527 41.3972 10.5527 41.4824C10.7521 41.284 11.0917 40.9143 11.3472 40.6868L11.3763 40.7159C11.4895 40.5456 11.5747 40.3752 11.6889 40.2049C11.7159 40.233 11.7159 40.261 11.745 40.2912C11.6588 40.5175 11.5747 40.772 11.4895 40.9994C11.4302 41.0274 11.3451 41.0857 11.3451 41.0566C11.2319 41.1428 11.1467 41.2549 11.0324 41.3401L10.5225 41.6807C10.239 41.9362 9.9555 42.1626 9.64288 42.4192C9.44452 42.7318 9.24617 43.0153 9.01763 43.3851C9.35936 43.2988 9.44452 43.4422 9.41649 43.7268C9.8132 43.7828 9.84231 43.4713 9.9555 43.2438C9.98353 43.1856 10.0126 43.0714 10.0687 43.0433C10.3242 42.8169 10.6077 42.6186 10.8912 42.3911C10.9483 42.334 10.9483 42.2186 10.9483 42.1346C10.9483 42.1065 10.805 42.1065 10.7198 42.0774C10.9753 41.7928 11.3451 41.312 11.5995 40.9994C11.7418 40.9132 11.883 40.7989 11.883 40.7137C11.855 40.4011 12.0533 40.317 12.2818 40.2028C12.1676 40.1165 12.1385 40.0335 12.1385 40.0055L12.1395 40.0023Z" fill="#9C447F"/>
<path fill-rule="evenodd" clip-rule="evenodd" d="M12.7078 39.6896C12.5946 39.8879 12.4814 40.0583 12.3683 40.2577L12.1979 40.1714C12.0847 40.8236 11.6869 41.3918 11.2902 41.5049C11.4034 41.5621 11.5166 41.6192 11.6029 41.5912C11.6869 41.5621 11.743 41.4187 11.8001 41.3346L12.5655 40.2264L12.8221 39.7995L12.7089 39.6863L12.7078 39.6896ZM3.2623 52.16C3.4046 52.16 3.54689 52.188 3.71506 52.188C3.71506 52.0748 3.85844 52.1018 3.85844 51.9897H3.94468C3.94468 52.132 3.97271 52.2452 3.97271 52.3885H3.37765C3.34854 52.3594 3.23535 52.188 3.26338 52.16H3.2623ZM3.03592 50.8534C2.94968 50.7672 2.80954 50.6831 2.80954 50.598C2.78043 50.4858 2.86559 50.3446 2.94968 50.2023C3.00789 50.4007 3.03592 50.571 3.09197 50.7704C3.06287 50.7974 3.03484 50.8265 3.03484 50.8545L3.03592 50.8534ZM3.74525 49.0348C3.85844 49.3216 3.97163 49.6342 4.0859 49.9188C4.05787 49.9188 3.88755 50.0051 3.85952 50.032C3.74633 49.7474 3.60403 49.4348 3.49084 49.1513C3.51887 49.1232 3.68919 49.037 3.74633 49.037L3.74525 49.0348ZM66.8951 76.1942C67.0352 76.1382 67.2055 76.108 67.4341 76.0541C67.1775 76.2514 66.9792 76.3937 66.8088 76.564C66.7797 76.5359 66.7517 76.5068 66.7226 76.5068C66.7797 76.3937 66.8369 76.3085 66.8951 76.1942ZM32.0258 16.1696C32.195 16.0553 32.3384 15.9701 32.5076 15.8569L32.5637 15.913C32.3912 16.1394 32.2511 16.3658 32.0516 16.6514C32.0236 16.4542 32.0236 16.3388 31.9945 16.1987C31.9665 16.1987 31.9945 16.1987 32.0236 16.1706L32.0258 16.1696ZM40.3372 30.5427C40.5927 30.4284 40.8482 30.3163 41.1597 30.1729C41.1317 30.3432 41.1317 30.4575 41.1317 30.5718C41.0455 30.5427 40.9323 30.5136 40.8471 30.5136C40.6768 30.5427 40.3642 30.7701 40.2219 30.7981C40.1949 30.7981 40.3361 30.5718 40.3361 30.5427H40.3372ZM61.6171 54.6319C61.6732 54.9154 62.2122 55.0577 61.6732 55.3412C61.7594 55.4005 61.8424 55.4274 61.9276 55.4857C61.9276 55.5148 61.8996 55.5719 61.8715 55.5999C61.8144 55.6269 61.7012 55.684 61.6452 55.6538C61.6161 55.6538 61.5589 55.5417 61.5589 55.4846C61.5589 55.2291 61.588 54.9736 61.6161 54.6329L61.6171 54.6319Z" fill="#9C447F"/>
</svg>
