<svg width="82" height="84" viewBox="0 0 82 84" fill="none" xmlns="http://www.w3.org/2000/svg">
<path d="M48.8033 1.51769C45.2727 0.96023 41.5564 0.774411 38.0258 1.33187C35.9818 1.7035 33.9378 2.63259 32.2655 3.56169C26.5051 1.7035 20.0014 0.58859 14.0552 1.7035C9.78142 2.44677 5.69342 5.04824 3.4636 8.95042C0.676321 13.5959 0.118865 19.1704 0.490502 24.5592C1.23378 30.5054 2.72032 36.4515 4.39269 42.2119C5.87924 47.229 7.5516 52.2461 10.3389 56.7058C11.8254 59.1214 14.0553 61.7229 17.0283 62.4661C19.444 63.0236 21.8596 62.2803 23.7178 60.7938C24.6469 61.7229 25.7618 62.4661 27.0625 62.8378C30.5931 64.1385 34.4953 64.1385 38.0258 62.6519C38.2116 67.4832 38.0258 72.5003 39.884 76.96C40.6273 79.1898 41.7422 81.2338 43.7862 82.5345C46.016 84.0211 48.6175 84.2069 51.2189 83.8353C53.4488 83.4636 55.8644 82.7203 57.7226 81.6054C59.7666 80.3047 61.4389 78.4465 62.368 76.2167C64.5979 71.1996 64.7837 65.8109 64.9695 60.4221C70.1724 60.7938 75.5612 59.493 79.4633 55.9625C80.9499 54.6618 82.2506 52.6178 81.6932 50.5737C81.1357 48.7156 79.0917 47.4148 77.2335 47.6007C75.1895 47.7865 73.3313 48.3439 71.2873 48.3439C75.747 40.5396 79.2775 32.1777 80.7641 23.4443C81.3215 19.7279 81.879 16.0115 80.7641 12.2952C80.2066 10.2512 78.7201 8.57879 77.2335 7.09224C73.8888 3.74751 69.2433 1.51769 64.5979 0.588593C59.2091 -0.526318 53.8204 0.0311376 48.8033 1.51769Z" fill="white"/>
<path d="M48.6179 3.7474C54.1925 2.07503 60.1387 1.51758 65.7132 3.18994C70.1729 4.49067 74.2609 7.09213 77.0482 10.8085C78.1631 12.295 78.5347 14.3391 78.5347 16.1972C78.7205 19.542 77.9772 22.8867 77.234 26.0456C75.19 34.5933 71.4736 42.5835 66.8281 50.0162C69.4296 51.1311 72.4027 50.5736 75.0042 50.202C76.1191 50.0162 77.6056 49.6446 78.3489 50.7595C79.0922 51.8744 78.3489 53.1751 77.6056 53.9184C73.7034 57.8206 67.7572 58.7497 62.5543 57.8206C61.9969 62.466 61.4394 67.1115 60.6961 71.9428C60.3245 74.5442 59.3954 77.3315 57.3514 79.0039C55.4932 80.6762 52.8918 81.4195 50.4761 81.7911C48.0605 82.1628 45.0874 81.977 43.2292 80.1188C41.1852 78.2606 39.8845 75.4733 39.6987 72.8719C39.1412 68.2264 39.1412 63.3951 39.1412 58.7497C36.9114 60.6078 33.9383 61.7228 30.9652 61.5369C28.9212 61.3511 26.5055 60.9795 25.019 59.4929C24.0899 58.7497 24.2757 57.2631 25.2048 56.5198C26.8772 55.2191 29.107 55.4049 30.9652 54.6616C32.4517 54.29 33.195 52.8035 33.9383 51.8744C32.2659 51.6886 30.5935 51.3169 29.2928 50.5736C27.063 52.9893 24.8332 55.5907 22.7892 58.0064C21.4884 59.4929 19.8161 60.7937 17.7721 60.422C15.5423 60.0504 13.8699 58.378 12.5692 56.7057C10.1535 53.1751 8.48116 49.0871 7.18043 44.9991C5.13642 38.3096 3.46406 31.6202 2.53497 24.7449C1.97751 19.542 2.53497 13.9674 5.50806 9.69359C7.9237 6.16304 12.0117 4.30485 16.0997 3.93322C21.6743 3.37576 27.2488 4.49067 32.4517 6.34886C36.7256 3.56158 42.3001 3.00413 47.3172 4.11904C47.8747 3.7474 48.2463 3.93322 48.6179 3.7474ZM52.7059 5.23395C53.8209 5.97722 54.9358 6.53467 56.0507 7.27795C60.5103 10.251 64.0409 14.5249 66.0849 19.3561C66.6423 20.8427 67.3856 22.1434 67.1998 23.8158C67.1998 26.9747 66.0849 30.1336 66.4565 33.2925C66.8281 36.6373 67.5714 40.1678 66.6423 43.5125C66.4565 44.6275 65.7132 45.7424 65.3416 46.8573C65.3416 47.0431 65.5274 47.4147 65.5274 47.4147C65.8991 46.8573 66.2707 46.2998 66.6423 45.7424C70.1729 39.982 72.7743 33.6642 74.6325 27.1605C75.5616 23.63 76.3049 19.9136 76.3049 16.1972C76.3049 14.7107 76.1191 13.0383 75.19 11.7376C73.146 9.13614 70.3587 7.09213 67.1998 5.7914C62.5543 4.30485 57.5372 4.11904 52.7059 5.23395ZM39.6987 5.60558C36.1681 5.97722 32.8234 8.02122 30.7794 10.8085C27.9921 14.7107 26.6914 19.542 26.3197 24.1874C29.2928 22.8867 32.4517 21.586 35.7965 22.3292C37.8405 22.8867 39.5128 24.7449 39.8845 26.7889C40.8136 31.0627 41.371 35.3365 40.4419 39.6104C39.6987 42.9551 37.6547 45.9282 36.9114 49.4587C37.8405 49.4587 38.7696 49.6446 39.5128 50.0162C41.1852 50.9453 42.1143 52.8035 41.9285 54.6616C41.7427 59.3071 41.7427 63.9526 42.1143 68.598C42.3001 70.4562 42.3001 72.5002 42.8576 74.3584C43.6008 76.5882 45.0874 78.818 47.503 79.3755C50.1045 79.7471 52.7059 79.0039 55.1216 77.889C57.3514 76.774 58.4663 74.1726 58.838 71.7569C59.5812 66.7398 60.1387 61.7228 60.6961 56.7057C60.882 54.8475 60.5103 52.9893 61.6252 51.3169C62.1827 50.202 63.2976 49.8304 64.2267 49.2729C63.4834 48.158 62.5543 47.0431 61.811 45.9282C59.3954 40.7253 56.0507 35.894 54.9358 30.3194C54.5641 27.9038 54.7499 25.1165 56.7939 23.4442C59.0238 21.586 61.9969 21.7718 64.7841 21.7718C63.1118 17.1263 60.1387 13.0383 56.4223 10.0652C51.591 6.53467 45.459 4.86231 39.6987 5.60558ZM14.9848 5.97722C11.8259 6.53468 8.66697 8.39286 6.99461 11.366C4.76479 15.2681 4.57897 19.7278 4.95061 24.0016C5.69388 29.5762 6.99461 35.1507 8.66698 40.7253C10.1535 45.3707 11.6401 50.0162 14.2415 54.1042C15.1706 55.5907 16.2855 57.0773 17.9579 57.6347C19.4444 58.0064 20.5594 56.7057 21.4884 55.7766C23.3466 53.3609 25.5765 51.1311 27.6205 48.7155C24.6474 46.114 23.1608 42.026 23.5325 37.938C23.9041 34.9649 24.0899 31.806 23.9041 28.6471C23.5325 24.3732 24.2757 19.9136 25.5765 15.6398C26.5055 12.4809 28.1779 9.69359 30.4077 7.27795C25.3906 6.16304 20.0019 5.04813 14.9848 5.97722ZM58.2805 25.1165C56.794 26.2314 56.794 28.4612 57.1656 30.1336C58.2805 35.5223 61.4394 39.982 63.6692 44.8133C65.5274 41.2827 64.4125 37.1947 64.0409 33.2925C63.6692 30.1336 64.5983 27.1605 64.7841 24.1874C62.7401 24.1874 60.3245 23.8158 58.2805 25.1165ZM26.1339 27.1605C26.1339 29.762 26.3197 32.3634 26.1339 34.7791C25.9481 37.0089 25.3906 39.2387 25.9481 41.4685C26.6914 45.5565 30.2219 48.9013 34.4957 48.9013C35.0532 46.8573 35.7965 44.8133 36.7256 42.9551C39.327 37.938 38.7696 32.1776 37.4688 26.9747C37.0972 25.4882 35.7965 24.3732 34.3099 24.3732C31.3368 24.3732 28.5495 25.674 26.1339 27.1605ZM63.8551 52.246C63.1118 52.9893 63.1118 54.1042 63.1118 55.0333C64.7841 55.5907 66.6423 55.5907 68.5005 55.4049C71.102 55.0333 73.8892 54.29 75.9332 52.246C72.7743 52.6176 69.2438 53.3609 66.0849 51.8744C65.3416 51.5027 64.4125 51.8744 63.8551 52.246ZM33.195 55.9624C31.3368 57.0773 29.107 56.8915 27.4346 57.8206C31.151 59.6787 36.5397 59.1213 39.1412 55.5907C40.4419 54.29 39.1412 51.6886 37.4688 51.8744C35.6107 52.9893 34.8674 55.0333 33.195 55.9624Z" fill="white"/>
<path d="M59.0237 25.8599C60.1386 25.1166 61.6252 25.1166 62.7401 25.4883C62.7401 26.9748 60.8819 28.0897 59.5811 27.3464C59.2095 27.1606 58.4662 26.4173 59.0237 25.8599Z" fill="white"/>
<path d="M32.8234 26.0462C33.9383 25.6745 35.239 25.8604 36.1681 26.6036C36.7255 27.1611 36.1681 28.0902 35.6106 28.276C34.3099 29.2051 32.2659 28.276 32.0801 26.7894C32.0801 26.4178 32.4517 26.0462 32.8234 26.0462Z" fill="white"/>
<path d="M52.7051 5.23398C57.3505 4.11907 62.5534 4.30489 67.0131 5.97726C70.172 7.09217 72.9593 9.32199 75.0033 11.9234C76.1182 13.2242 76.1182 14.8965 76.1182 16.3831C76.1182 20.0995 75.3749 23.63 74.4458 27.3464C72.5876 33.85 69.9862 40.1678 66.4556 45.9282C66.084 46.4857 65.7124 47.0431 65.3407 47.6006C65.3407 47.4148 65.1549 47.0431 65.1549 47.0431C65.5265 45.9282 66.2698 44.8133 66.4556 43.6984C67.3847 40.3537 66.6415 36.8231 66.2698 33.4784C65.8982 30.3195 67.0131 27.1606 67.0131 24.0016C67.1989 22.5151 66.4556 21.0286 65.8982 19.542C63.6684 14.7107 60.3236 10.4369 55.864 7.4638C55.1207 6.53471 53.82 5.97726 52.7051 5.23398Z" fill="#9C447F"/>
<path d="M39.6985 5.60574C45.4589 4.86247 51.5909 6.53483 56.2364 10.0654C59.9527 13.0385 63.1117 17.1265 64.5982 21.7719C61.9967 21.7719 58.8378 21.5861 56.608 23.4443C54.564 25.1167 54.3782 27.904 54.7498 30.3196C55.8647 36.08 59.2095 40.9112 61.6251 45.9283C62.1826 47.2291 63.1117 48.1582 64.0408 49.2731C62.9258 49.8305 61.9967 50.2022 61.4393 51.3171C60.5102 52.9894 60.8818 54.8476 60.5102 56.7058C59.9527 61.7229 59.3953 66.74 58.652 71.7571C58.2804 74.1727 57.1655 76.7742 54.9356 77.8891C52.7058 79.004 49.9186 79.7473 47.3171 79.3757C44.9015 79.004 43.2291 76.5884 42.6716 74.3586C42.1142 72.5004 42.1142 70.4564 41.9284 68.5982C41.7425 63.9527 41.7425 59.3073 41.7425 54.6618C41.9284 52.8036 40.9993 50.9454 39.3269 50.0163C38.5836 49.6447 37.6545 49.4589 36.7254 49.4589C37.4687 46.1142 39.5127 43.1411 40.256 39.6105C41.1851 35.3367 40.6276 31.0629 39.6985 26.789C39.3269 24.745 37.6545 22.8869 35.6105 22.3294C32.2658 21.5861 29.1069 22.701 26.1338 24.1876C26.5054 19.5421 27.8062 14.7108 30.5934 10.8087C32.8233 8.02138 36.168 6.16319 39.6985 5.60574Z" fill="#9C447F"/>
<path d="M14.984 5.97746C20.1869 5.04837 25.3898 5.97746 30.4069 7.46401C28.1771 9.87965 26.5047 12.6669 25.5756 15.8258C24.2749 19.9138 23.7175 24.3735 23.9033 28.8331C24.0891 31.992 24.0891 34.9651 23.5316 38.1241C22.9742 42.0262 24.6466 46.1142 27.6197 48.9015C25.5757 51.3172 23.5316 53.547 21.4876 55.9626C20.5586 57.0775 19.4436 58.1924 17.9571 57.8208C16.2847 57.2634 15.1698 55.7768 14.2407 54.2903C11.6393 50.2022 10.1527 45.5568 8.66617 40.9113C6.99381 35.5226 5.69308 29.948 4.94981 24.1877C4.57817 19.9138 4.76398 15.2684 6.99381 11.552C8.66617 8.57892 11.6393 6.72073 14.984 5.97746Z" fill="#9C447F"/>
<path d="M58.28 25.1171C60.1382 23.8164 62.7397 24.0022 64.7837 24.188C64.5978 27.1611 63.6688 30.1342 64.0404 33.2931C64.412 37.0095 65.3411 41.0975 63.6687 44.8139C61.2531 39.9826 58.0942 35.523 57.1651 30.1342C56.9793 28.4619 56.9793 26.4179 58.28 25.1171ZM59.0233 25.8604C58.4658 26.4179 59.0233 27.1611 59.5807 27.3469C60.8815 28.0902 62.7397 26.9753 62.7397 25.4888C61.6247 25.1171 60.1382 25.1171 59.0233 25.8604Z" fill="#9C447F"/>
<path d="M26.1336 27.1602C28.5493 25.6737 31.3366 24.3729 34.1238 24.5588C35.6104 24.5588 36.9111 25.6737 37.2827 27.1602C38.5835 32.3631 38.9551 38.1235 36.5395 43.1406C35.6104 44.9988 34.8671 47.0428 34.3097 49.0868C30.0358 49.0868 26.5053 45.5563 25.762 41.6541C25.2046 39.4242 25.9478 37.1944 25.9478 34.9646C26.3195 32.1773 26.1336 29.7617 26.1336 27.1602ZM32.8231 26.0453C32.4515 26.2311 32.0798 26.417 32.0798 26.7886C32.2656 28.2751 34.3097 29.2042 35.6104 28.2751C36.1678 27.9035 36.7253 27.1602 36.1678 26.6028C35.2387 25.8595 33.938 25.6737 32.8231 26.0453Z" fill="#9C447F"/>
<path d="M63.8546 52.2466C64.4121 51.875 65.3411 51.3175 66.0844 51.875C69.0575 53.5474 72.5881 52.6183 75.9328 52.2466C73.8888 54.1048 71.2873 55.0339 68.5001 55.4055C66.6419 55.5914 64.7837 55.7772 63.1113 55.0339C63.1113 54.1048 63.1113 52.9899 63.8546 52.2466Z" fill="#9C447F"/>
<path d="M33.1942 55.9622C34.8666 55.0331 35.6099 52.9891 37.2822 51.8742C38.9546 51.6884 40.4412 54.2898 38.9546 55.5906C36.3531 59.1211 30.9644 59.8644 27.248 57.8204C29.1062 57.0771 31.3361 57.0771 33.1942 55.9622Z" fill="#9C447F"/>
<path d="M48.8034 1.51741C53.8205 0.21668 59.2092 -0.340776 64.4121 0.588317C69.0576 1.33159 73.5172 3.74723 77.0478 7.09196C78.5343 8.57851 80.0209 10.2509 80.5783 12.2949C81.6932 16.0112 81.1358 19.7276 80.5783 23.444C78.9059 32.1775 75.5612 40.5393 71.1016 48.3437C73.1456 48.3437 75.0038 47.7862 77.0478 47.6004C78.9059 47.4146 81.1358 48.7153 81.5074 50.5735C82.0649 52.6175 80.7641 54.6615 79.2776 55.9622C75.1896 59.4928 69.615 60.6077 64.5979 60.4219C64.2263 65.8106 64.2263 71.1993 61.9965 76.2164C60.8816 78.4462 59.395 80.3044 57.351 81.6052C55.307 82.9059 53.0772 83.4633 50.8474 83.835C48.4317 84.2066 45.6444 84.0208 43.4146 82.5343C41.3706 81.2335 40.2557 79.1895 39.5124 76.9597C37.8401 72.3142 38.0259 67.483 37.6542 62.6517C34.1237 64.1382 30.2215 64.1382 26.691 62.8375C25.3902 62.4659 24.2753 61.7226 23.3462 60.7935C21.488 62.28 19.0724 63.0233 16.6568 62.4659C13.6837 61.7226 11.6397 59.1211 9.9673 56.7055C7.18002 52.2458 5.50766 47.2287 4.02111 42.2116C2.34875 36.4513 0.862198 30.6909 0.118924 24.5589C-0.252713 19.1702 0.118924 13.5956 3.09202 8.95015C5.32184 5.23378 9.40985 2.63232 13.6837 1.70322C19.8157 0.402495 26.1335 1.70323 31.8939 3.37559C33.7521 2.4465 35.6102 1.51741 37.6542 1.14577C41.5564 0.588315 45.2728 0.959954 48.8034 1.51741ZM48.6175 3.74723C48.2459 3.93305 47.6884 3.56141 47.3168 3.56141C42.2997 2.4465 36.7252 3.00395 32.4513 5.79123C27.2484 3.93305 21.6739 2.81814 16.0993 3.37559C12.0113 3.74723 7.73748 5.79123 5.50766 9.13596C2.53456 13.5956 2.16293 19.1702 2.53456 24.1873C3.46365 31.0625 5.13602 37.752 7.18002 44.2557C8.66657 48.3437 10.1531 52.4317 12.5688 55.9622C13.8695 57.6346 15.5419 59.4928 17.7717 59.6786C19.8157 59.8644 21.488 58.7495 22.7888 57.2629C25.0186 54.6615 27.0626 52.2458 29.2924 49.8302C30.779 50.5735 32.4513 50.9451 33.9379 51.1309C33.0088 52.2458 32.2655 53.5466 30.9648 53.9182C29.1066 54.6615 26.8768 54.4757 25.2044 55.7764C24.2753 56.5197 24.0895 58.0062 25.0186 58.7495C26.5051 60.236 28.9208 60.6077 30.9648 60.7935C33.9379 60.9793 36.911 60.0502 39.1408 58.0062C39.1408 62.6517 39.1408 67.483 39.6983 72.1284C39.8841 74.9157 41.1848 77.703 43.2288 79.3753C45.087 81.0477 48.0601 81.4193 50.4757 81.0477C52.8914 80.4902 55.4928 79.747 57.351 78.2604C59.395 76.4022 60.3241 73.8008 60.6957 71.1993C61.439 66.5539 61.9965 61.9084 62.5539 57.0771C67.7568 58.0062 73.703 56.8913 77.6052 53.1749C78.3485 52.4317 79.2776 50.9451 78.3485 50.016C77.6052 49.0869 76.1187 49.2727 75.0038 49.4586C72.4023 50.016 69.4292 50.5735 66.8277 49.2728C71.4732 41.84 75.1896 33.8498 77.2336 25.3022C77.9769 22.1433 78.5343 18.7985 78.5343 15.4538C78.3485 13.5956 78.1627 11.5516 77.0478 10.0651C74.2605 6.34869 70.1725 3.74723 65.7128 2.4465C60.3241 1.70323 54.1921 2.07486 48.6175 3.74723Z" fill="#9C447F"/>
</svg>
