<svg width="37" height="27" viewBox="0 0 37 27" fill="none" xmlns="http://www.w3.org/2000/svg">
<path d="M0.116 16.404C0.116 22.116 3.644 26.316 8.6 26.316C12.968 26.316 16.076 23.124 16.076 19.344C16.076 15.9 13.808 14.388 11.96 13.548C9.692 12.708 8.852 12.036 8.852 10.188C8.852 7.416 11.708 5.4 17.504 3.636L14.9 0.275998C5.156 2.292 0.116 8.088 0.116 16.404ZM18.932 16.404C18.932 22.116 22.46 26.316 27.416 26.316C31.784 26.316 34.892 23.124 34.892 19.344C34.892 15.9 32.624 14.388 30.776 13.548C28.508 12.708 27.752 12.036 27.752 10.188C27.752 7.416 30.524 5.4 36.32 3.636L33.8 0.275998C23.972 2.292 18.932 8.088 18.932 16.404Z" fill="#9C447F"/>
</svg>
