<svg width="86" height="84" viewBox="0 0 86 84" fill="none" xmlns="http://www.w3.org/2000/svg">
<path d="M9.26186 84H51.0266C51.0266 84 41.7632 62.9606 44.1179 43.6489C46.4734 24.3371 61.7029 15.5438 70.3384 14.6019C78.9731 13.6592 83.6841 18.9982 83.6841 18.9982L85.5687 16.1717C85.5687 16.1717 73.1648 3.61091 57.4636 5.02453C41.7624 6.43735 30.9291 16.7996 24.1782 29.3605C17.4264 41.9221 13.5011 50.7138 10.8325 63.9025C8.1638 77.0913 9.26186 84 9.26186 84Z" fill="#9C447F"/>
<path d="M0.941878 62.9595L9.10645 63.5874L7.69282 71.7512L0 70.8093L0.941878 62.9595Z" fill="#9C447F"/>
<path d="M13.8164 45.6887L16.0149 39.5657L8.79221 36.7393L6.4375 43.3332L13.8164 45.6887Z" fill="#9C447F"/>
<path d="M24.0212 24.6503L28.2605 19.627L22.7654 16.0156L18.3691 20.882L24.0212 24.6503Z" fill="#9C447F"/>
<path d="M35.1689 5.18168L38.9373 9.73491L44.1184 6.75147L40.3501 2.51221L35.1689 5.18168Z" fill="#9C447F"/>
<path d="M53.54 0L54.4819 4.55403L60.9197 4.39704L60.291 0.314766L53.54 0Z" fill="#9C447F"/>
<path d="M75.364 4.86621L75.207 7.69187L79.6033 10.0465L80.5451 8.63375L75.364 4.86621Z" fill="#9C447F"/>
<path d="M74.4209 16.957V19.3117L78.6602 19.7827V17.8981L74.4209 16.957Z" fill="#9C447F"/>
<path d="M60.9209 18.9981L62.9616 22.7656L65.9451 20.4109L65.3172 17.8984L60.9209 18.9981Z" fill="#9C447F"/>
<path d="M54.481 23.8662L57.6214 28.5764L55.7368 31.873L51.1836 26.8496L54.481 23.8662Z" fill="#9C447F"/>
<path d="M48.2027 36.8975L46.1611 40.9798L51.4992 45.5338L52.7551 40.3518L48.2027 36.8975Z" fill="#9C447F"/>
<path d="M46.0034 51.1846L45.6895 56.6797L52.2834 59.5061L51.9695 54.3242L46.0034 51.1846Z" fill="#9C447F"/>
<path d="M47.8857 70.6543L49.4564 76.3072L57.7771 76.7781L54.7937 70.6543H47.8857Z" fill="#9C447F"/>
</svg>
