<svg width="95" height="84" viewBox="0 0 95 84" fill="none" xmlns="http://www.w3.org/2000/svg">
<path d="M94.0209 42.0096C94.0209 35.761 86.2209 29.8393 74.2623 26.1671C77.022 13.9391 75.7955 4.21057 70.3911 1.0959C69.1454 0.3653 67.6889 0.0192261 66.0982 0.0192261V4.30671C66.9798 4.30671 67.6889 4.47974 68.283 4.80659C70.8894 6.30625 72.0201 12.0165 71.1385 19.361C70.9277 21.1682 70.5827 23.0716 70.1611 25.0135C66.4049 24.0906 62.3037 23.3793 57.9917 22.9178C55.4045 19.361 52.7214 16.1309 50.0193 13.3046C56.2669 7.47906 62.1312 4.28748 66.1174 4.28748V0C60.8472 0 53.948 3.76837 46.9721 10.3053C39.9962 3.80682 33.097 0.0769058 27.8268 0.0769058V4.36438C31.7938 4.36438 37.6773 7.53674 43.925 13.3239C41.2419 16.1501 38.5589 19.361 36.01 22.9178C31.6789 23.3793 27.5777 24.0906 23.8214 25.0327C23.3806 23.1101 23.0548 21.2451 22.8249 19.4571C21.9241 12.1126 23.0357 6.40238 25.6229 4.8835C26.1978 4.53742 26.9452 4.38361 27.8268 4.38361V0.0961318C26.217 0.0961318 24.7605 0.442206 23.4956 1.17281C18.1104 4.28748 16.9031 13.9968 19.6819 26.1863C7.76161 29.8778 0 35.7803 0 42.0096C0 48.2582 7.79994 54.1799 19.7586 57.8521C16.9989 70.0801 18.2254 79.8086 23.6298 82.9233C24.8755 83.6539 26.332 84 27.9418 84C33.212 84 40.1112 80.2316 47.0871 73.6947C54.063 80.1932 60.9622 83.9231 66.2324 83.9231C67.8422 83.9231 69.2987 83.577 70.5636 82.8464C75.9488 79.7317 77.1561 70.0224 74.3773 57.8329C86.2593 54.1607 94.0209 48.239 94.0209 42.0096ZM69.0687 29.1856C68.3596 31.6658 67.4781 34.2229 66.4815 36.78C65.6958 35.2419 64.8717 33.7038 63.971 32.1657C63.0894 30.6276 62.1504 29.1279 61.2113 27.6667C63.9327 28.0705 66.5582 28.5704 69.0687 29.1856ZM60.2914 49.6617C58.7966 52.2573 57.2634 54.7182 55.6728 57.0062C52.8173 57.2561 49.9234 57.3907 47.0104 57.3907C44.1166 57.3907 41.2228 57.2561 38.3864 57.0254C36.7958 54.7375 35.2435 52.2957 33.7486 49.7194C32.2921 47.2007 30.9698 44.6436 29.7624 42.0673C30.9506 39.491 32.2921 36.9146 33.7295 34.396C35.2243 31.8004 36.7574 29.3394 38.3481 27.0515C41.2036 26.8016 44.0974 26.667 47.0104 26.667C49.9043 26.667 52.7981 26.8016 55.6344 27.0323C57.2251 29.3202 58.7774 31.762 60.2722 34.3383C61.7287 36.8569 63.0511 39.4141 64.2585 41.9904C63.0511 44.5667 61.7287 47.143 60.2914 49.6617ZM66.4815 47.1623C67.5164 49.7386 68.398 52.3149 69.1262 54.8144C66.6157 55.4296 63.971 55.9487 61.2305 56.3525C62.1695 54.8721 63.1086 53.3532 63.9902 51.7958C64.8717 50.2577 65.6958 48.7004 66.4815 47.1623ZM47.0488 67.6768C45.2665 65.8311 43.4842 63.7739 41.721 61.5244C43.4458 61.6013 45.209 61.659 46.9913 61.659C48.7927 61.659 50.575 61.6205 52.319 61.5244C50.5942 63.7739 48.8119 65.8311 47.0488 67.6768ZM32.7904 56.3525C30.069 55.9487 27.4435 55.4488 24.933 54.8336C25.6421 52.3534 26.5236 49.7963 27.5202 47.2392C28.3059 48.7773 29.13 50.3154 30.0307 51.8535C30.9314 53.3916 31.8513 54.8913 32.7904 56.3525ZM46.9529 16.3424C48.7352 18.1881 50.5175 20.2454 52.2807 22.4948C50.5559 22.4179 48.7927 22.3603 47.0104 22.3603C45.209 22.3603 43.4267 22.3987 41.6827 22.4948C43.4075 20.2454 45.1898 18.1881 46.9529 16.3424ZM32.7712 27.6667C31.8322 29.1472 30.8931 30.6661 30.0116 32.2234C29.13 33.7615 28.3059 35.2996 27.5202 36.8377C26.4853 34.2614 25.6037 31.6851 24.8755 29.1856C27.386 28.5896 30.0307 28.0705 32.7712 27.6667ZM15.4274 51.7382C8.64318 48.835 4.25451 45.0281 4.25451 42.0096C4.25451 38.9911 8.64318 35.165 15.4274 32.2811C17.0755 31.5697 18.877 30.9352 20.736 30.3392C21.8283 34.1076 23.2657 38.0298 25.048 42.0481C23.2848 46.0471 21.8667 49.9501 20.7934 53.6992C18.8962 53.1032 17.0947 52.4495 15.4274 51.7382ZM25.7379 79.2126C23.1315 77.713 22.0008 72.0027 22.8824 64.6583C23.0932 62.851 23.4381 60.9476 23.8598 59.0057C27.616 59.9286 31.7172 60.64 36.0292 61.1014C38.6164 64.6583 41.2994 67.8883 44.0016 70.7146C37.754 76.5402 31.8897 79.7317 27.9035 79.7317C27.0411 79.7125 26.3128 79.5395 25.7379 79.2126ZM71.196 64.5621C72.0967 71.9066 70.9852 77.6168 68.398 79.1357C67.823 79.4818 67.0756 79.6356 66.1941 79.6356C62.227 79.6356 56.3435 76.4633 50.0959 70.6761C52.7789 67.8498 55.462 64.639 58.0108 61.0822C62.342 60.6207 66.4432 59.9094 70.1994 58.9673C70.6402 60.9091 70.9852 62.7741 71.196 64.5621ZM78.5743 51.7382C76.9262 52.4495 75.1247 53.084 73.2657 53.68C72.1734 49.9116 70.736 45.9895 68.9537 41.9712C70.7169 37.9721 72.135 34.0691 73.2083 30.32C75.1055 30.916 76.907 31.5697 78.5935 32.2811C85.3777 35.1842 89.7663 38.9911 89.7663 42.0096C89.7472 45.0281 85.3585 48.8542 78.5743 51.7382Z" fill="#9C447F"/>
<path d="M47.0296 50.796C51.8666 50.796 55.7878 46.8622 55.7878 42.0096C55.7878 37.157 51.8666 33.2231 47.0296 33.2231C42.1926 33.2231 38.2715 37.157 38.2715 42.0096C38.2715 46.8622 42.1926 50.796 47.0296 50.796Z" fill="#9C447F"/>
</svg>
