<svg width="16" height="16" viewBox="0 0 16 16" fill="none" xmlns="http://www.w3.org/2000/svg">
<path id="twitter" fill-rule="evenodd" clip-rule="evenodd" d="M2 0C0.895431 0 0 0.895431 0 2V14C0 15.1046 0.895431 16 2 16H14C15.1046 16 16 15.1046 16 14V2C16 0.895431 15.1046 0 14 0H2ZM11.9804 6.22663C11.9804 8.93463 9.91642 12.0626 6.14441 12.0626C4.98841 12.0626 3.90841 11.7226 3.00441 11.1466C3.16441 11.1666 3.32841 11.1746 3.49241 11.1746C4.45241 11.1746 5.33641 10.8466 6.04041 10.2946C5.14441 10.2786 4.38441 9.68663 4.12441 8.87063C4.24841 8.89463 4.37641 8.90663 4.50841 8.90663C4.69641 8.90663 4.87641 8.88263 5.04841 8.83463C4.11241 8.64663 3.40441 7.81463 3.40441 6.82263V6.79463C3.68041 6.94663 3.99641 7.03863 4.33241 7.05063C3.78441 6.68263 3.42041 6.05463 3.42041 5.34263C3.42041 4.96663 3.52041 4.61463 3.69641 4.31063C4.70841 5.55063 6.22041 6.37063 7.92441 6.45463C7.89242 6.30263 7.87241 6.14663 7.87241 5.98663C7.87241 4.85463 8.79242 3.93463 9.92442 3.93463C10.5124 3.93463 11.0444 4.18263 11.4204 4.58263C11.8884 4.49063 12.3284 4.32263 12.7244 4.08663C12.5684 4.56663 12.2444 4.97063 11.8204 5.22263C12.2364 5.17063 12.6324 5.06263 13.0004 4.89863C12.7244 5.31063 12.3764 5.67463 11.9764 5.96263C11.9804 6.05063 11.9804 6.13863 11.9804 6.22663Z" fill="#ABB1FB"/>
</svg>
