<svg width="75" height="84" viewBox="0 0 75 84" fill="none" xmlns="http://www.w3.org/2000/svg">
<path d="M67.6181 61.5541L38.3508 78.1104V65.2184L56.5865 55.1848L67.6181 61.5541ZM69.623 59.7411V25.1224L58.9175 31.3095V53.5637L69.623 59.7411ZM6.51268 61.5541L35.78 78.1104V65.2184L17.5347 55.1848L6.51268 61.5541ZM4.50781 59.7411V25.1224L15.2133 31.3095V53.5637L4.50781 59.7411ZM5.76445 22.8778L35.78 5.89941V18.3598L16.5466 28.9402L16.3932 29.0265L5.76445 22.8778ZM68.3663 22.8778L38.3508 5.89941V18.3598L57.5842 28.9306L57.7376 29.0169L68.3663 22.8778Z" fill="#9C447F"/>
<path d="M35.781 62.283L17.7852 52.3837V32.7866L35.781 43.1751V62.283ZM38.3519 62.283L56.3477 52.3933V32.7866L38.3519 43.1751V62.283ZM19.0034 30.5228L37.0665 20.5947L55.1295 30.5228L37.0665 40.9496L19.0034 30.5228Z" fill="#9C447F"/>
</svg>
