<svg width="200" height="200" viewBox="0 0 200 200" fill="none" xmlns="http://www.w3.org/2000/svg">
<path d="M25.0717 44.5993C0.488407 56.2021 -5.27627 81.8847 7.82686 104.423C20.93 126.962 40.8474 128.01 59.7166 131.155C78.5858 134.3 97.3811 151.1 116.447 140.578C135.514 130.056 142.086 87.9879 100.672 76.1531C59.2582 64.3182 49.655 32.9965 25.0717 44.5993Z" stroke="#9C447F" stroke-width="2"/>
<path d="M50.3725 122.701C51.3047 125.735 51.3683 128.32 50.7803 130.518C50.1932 132.713 48.9366 134.596 47.1044 136.197C43.4065 139.43 37.4053 141.476 30.1583 142.453C23.2023 143.39 17.6214 140.638 14.0697 136.542C10.4883 132.411 9.03136 126.995 10.2195 122.672C11.4601 118.158 14.2573 113.717 17.8858 110.411C21.5178 107.101 25.9003 105 30.2918 105C34.7868 105 38.8372 106.355 42.2358 109.205C45.6451 112.064 48.4616 116.481 50.3725 122.701Z" stroke="#9C447F" stroke-width="2"/>
<path d="M112.315 124.585C114.038 127.17 113.829 130.163 112.438 132.676C111.033 135.213 108.492 137.127 105.779 137.505C102.819 137.917 99.8725 137.746 97.551 136.89C95.2527 136.043 93.6358 134.561 93.0778 132.333C91.8989 127.627 94.847 123.514 98.3413 122.351C100.301 121.699 102.952 120.929 105.557 121.005C108.115 121.08 110.566 121.963 112.315 124.585Z" stroke="#9C447F" stroke-width="2"/>
<path d="M74.584 1.6999C88.8003 -2.28096 96.721 11.7271 105.681 18.3366C114.642 24.946 137.036 31.2808 130.462 47.0583C123.888 62.8357 102.852 59.5506 84.4447 74.6697C66.0379 89.7888 51.8121 79.5274 51.8125 63.3145C51.8128 51.8336 55.519 44.4296 58.1485 31.9391C60.7781 19.4487 58.1498 6.30183 74.584 1.6999Z" stroke="#9C447F" stroke-width="2"/>
</svg>
