<svg width="200" height="200" viewBox="0 0 200 200" fill="none" xmlns="http://www.w3.org/2000/svg">
<path d="M42.2311 97.3272C39.9878 124.418 59.3472 142.252 85.4179 142.174C111.489 142.095 122.355 125.37 134.513 110.602C146.671 95.8328 170.618 87.9558 171.039 66.1829C171.46 44.4101 138.314 17.6843 107.358 47.6323C76.4015 77.5803 44.4745 70.236 42.2311 97.3272Z" stroke="#9C447F" stroke-width="2"/>
<path d="M89.9753 126.899C93.0692 127.608 95.34 128.846 96.9494 130.454C98.5564 132.06 99.5587 134.09 100.03 136.477C100.98 141.296 99.7516 147.516 96.9738 154.281C94.3075 160.773 89.1336 164.23 83.8105 165.258C78.4428 166.295 73.0237 164.848 69.8739 161.658C66.5849 158.326 64.1376 153.683 63.0886 148.888C62.0385 144.088 62.4099 139.242 64.6057 135.439C66.8532 131.546 70.0522 128.716 74.2195 127.198C78.4 125.674 83.6331 125.443 89.9753 126.899Z" stroke="#9C447F" stroke-width="2"/>
<path d="M126.222 56.2235C129.322 56.0233 131.809 57.7009 133.29 60.1628C134.785 62.647 135.172 65.8054 134.143 68.3435C133.02 71.1129 131.399 73.5794 129.497 75.162C127.614 76.7287 125.522 77.388 123.314 76.7574C118.649 75.4253 116.561 70.8158 117.3 67.2079C117.715 65.1845 118.374 62.5043 119.743 60.2861C121.087 58.1083 123.076 56.4267 126.222 56.2235Z" stroke="#9C447F" stroke-width="2"/>
<path d="M13.9919 51.7728C17.6525 37.4707 33.7442 37.6152 43.9483 33.1601C54.1524 28.705 70.8359 12.478 81.2126 26.0599C91.5893 39.6418 78.2259 56.2177 82.116 79.718C86.0061 103.218 70.0065 110.408 55.9659 102.301C46.0234 96.5601 41.4644 89.6485 31.9621 81.126C22.4598 72.6034 9.76015 68.3062 13.9919 51.7728Z" stroke="#9C447F" stroke-width="2"/>
</svg>
